<?xml version="1.0" encoding="UTF-8"?>
<svg width="1920px" height="108px" viewBox="0 0 1920 108" version="1.1" xmlns="http://www.w3.org/2000/svg" xmlns:xlink="http://www.w3.org/1999/xlink">
    <!-- Generator: sketchtool 63.1 (101010) - https://sketch.com -->
    <title>57B9C3F2-2E40-43F6-824E-D845FAE1A0D4</title>
    <desc>Created with sketchtool.</desc>
    <g id="Page-1" stroke="none" stroke-width="1" fill="none" fill-rule="evenodd">
        <g id="01-ABOUT" transform="translate(0.000000, -1084.000000)" fill="#EDEDED">
            <g id="BG-Graphics" transform="translate(-463.000000, -213.000000)">
                <g id="BG-CI-HYPERCONNECT" transform="translate(443.000000, 1297.000000)">
                    <path d="M1897.83292,-4.97379915e-14 C1899.16423,-4.97379915e-14 1900.32913,0.480835391 1901.29696,1.44250617 L1901.29696,1.44250617 L1959.125,62.957 L1959.12587,5.56457684 C1959.12587,4.51735483 1959.48082,3.58320496 1960.16267,2.82512457 L1960.32581,2.65333711 C1961.1097,1.86651556 1962.11257,1.4599911 1963.24243,1.4599911 L1963.24243,1.4599911 L1976.73512,1.4599911 C1977.89126,1.4599911 1978.90726,1.91022787 1979.69116,2.77136034 C1980.4444,3.58878051 1980.8473,4.5373376 1980.8473,5.56457684 L1980.8473,5.56457684 L1980.8473,104.044036 C1980.8473,105.215526 1980.38309,106.220909 1979.49409,106.964018 C1978.67077,107.641559 1977.73798,108 1976.73512,108 L1976.73512,108 L1974.68121,108 C1973.3499,108 1972.185,107.519165 1971.20404,106.54438 L1971.20404,106.54438 L1913.09,42.619 L1913.09047,102.435423 C1913.09047,103.482645 1912.74307,104.413026 1912.06231,105.174068 L1911.89929,105.346663 C1911.10664,106.133484 1910.11253,106.540009 1908.98267,106.540009 L1908.98267,106.540009 L1895.6345,106.540009 C1894.50026,106.540009 1893.50615,106.133484 1892.71788,105.346663 C1891.92522,104.55547 1891.52232,103.563201 1891.52232,102.435423 L1891.52232,102.435423 L1891.52232,3.9559639 C1891.52232,2.81070142 1891.93836,1.81843202 1892.76167,1.07532278 C1893.54995,0.362812158 1894.52653,-4.97379915e-14 1895.6345,-4.97379915e-14 L1895.6345,-4.97379915e-14 Z M1726.85992,-4.97379915e-14 C1734.25221,-4.97379915e-14 1740.84746,1.14963371 1746.63692,3.46201481 C1752.40449,5.76128223 1757.93557,9.25826689 1763.21265,13.9267414 C1764.1761,14.752904 1764.70161,15.7976282 1764.70161,16.9778605 C1764.70161,18.1187518 1764.26368,19.1328773 1763.44475,19.9502975 L1763.44475,19.9502975 L1754.48904,29.182337 C1752.803,30.8652609 1750.76662,30.8652609 1748.99738,29.2304205 C1746.18147,26.7038491 1742.84881,24.6930829 1738.99063,23.1893795 C1735.13245,21.6856761 1731.23486,20.9381957 1727.29785,20.9381957 C1718.47352,20.9381957 1711.07685,24.1291942 1705.02025,30.546161 C1698.94614,36.9806128 1695.92441,44.6783503 1695.92441,53.7093132 C1695.92441,59.5361638 1697.28199,64.9258914 1700.01031,69.9003521 C1702.73425,74.8660703 1706.50922,78.817663 1711.34399,81.772615 C1716.17,84.7144534 1721.52591,86.183187 1727.44675,86.183187 C1735.15435,86.183187 1742.33643,83.5123649 1749.06307,78.1270085 C1750.93303,76.658275 1752.91249,76.658275 1754.50218,78.2450318 L1754.50218,78.2450318 L1763.58051,87.5950945 C1764.31623,88.3338325 1764.70599,89.251791 1764.70599,90.2877727 C1764.70599,91.5117173 1764.27244,92.5826689 1763.41847,93.4350589 C1753.39421,103.139191 1741.18467,108 1726.85992,108 C1717.04586,108 1707.94564,105.600194 1699.58114,100.800583 C1691.21226,96.0053426 1684.617,89.5009511 1679.80851,81.3005221 C1674.99564,73.0957219 1672.58701,64.0341604 1672.58701,54.1464362 C1672.58701,44.2587121 1674.99564,35.1534383 1679.80851,26.852471 C1684.617,18.5558749 1691.18598,11.9990286 1699.50231,7.19941717 C1707.81864,2.39980572 1716.94514,-4.97379915e-14 1726.85992,-4.97379915e-14 Z M536.859917,-4.97379915e-14 C544.252208,-4.97379915e-14 550.847462,1.14963371 556.636923,3.46201481 C562.404486,5.76128223 567.935566,9.25826689 573.212646,13.9267414 C574.176096,14.752904 574.701614,15.7976282 574.701614,16.9778605 C574.701614,18.1187518 574.263683,19.1328773 573.44475,19.9502975 L573.44475,19.9502975 L564.489042,29.182337 C562.803004,30.8652609 560.766621,30.8652609 558.997376,29.2304205 C556.181473,26.7038491 552.848811,24.6930829 548.990631,23.1893795 C545.132451,21.6856761 541.234857,20.9381957 537.297849,20.9381957 C528.47352,20.9381957 521.07685,24.1291942 515.020251,30.546161 C508.946136,36.9806128 505.924405,44.6783503 505.924405,53.7093132 C505.924405,59.5361638 507.281994,64.9258914 510.01031,69.9003521 C512.734247,74.8660703 516.50922,78.817663 521.343989,81.772615 C526.169998,84.7144534 531.525906,86.183187 537.446745,86.183187 C545.154347,86.183187 552.336431,83.5123649 559.063065,78.1270085 C560.933035,76.658275 562.912487,76.658275 564.50218,78.2450318 L564.50218,78.2450318 L573.580509,87.5950945 C574.316234,88.3338325 574.705994,89.251791 574.705994,90.2877727 C574.705994,91.5117173 574.272441,92.5826689 573.418474,93.4350589 C563.394212,103.139191 551.18467,108 536.859917,108 C527.045862,108 517.945637,105.600194 509.581137,100.800583 C501.212258,96.0053426 494.617003,89.5009511 489.80851,81.3005221 C484.995639,73.0957219 482.587013,64.0341604 482.587013,54.1464362 C482.587013,44.2587121 484.995639,35.1534383 489.80851,26.852471 C494.617003,18.5558749 501.185982,11.9990286 509.502309,7.19941717 C517.818637,2.39980572 526.945138,-4.97379915e-14 536.859917,-4.97379915e-14 Z M633.121734,-4.97379915e-14 C643.036512,-4.97379915e-14 652.136738,2.39980572 660.409272,7.19941717 C668.677427,11.9990286 675.224509,18.5558749 680.028622,26.852471 C684.841494,35.1534383 687.25012,44.2587121 687.25012,54.1464362 C687.25012,64.0341604 684.841494,73.0957219 680.024243,81.3005221 C675.22013,89.4965799 668.677427,96.0009714 660.409272,100.800583 C652.136738,105.600194 643.036512,108 633.121734,108 C623.215713,108 614.137385,105.600194 605.913023,100.796212 C597.69742,95.9966002 591.176614,89.4965799 586.3725,81.3005221 C581.555249,73.0957219 579.146624,64.0341604 579.146624,54.1464362 C579.146624,44.2587121 581.555249,35.1534383 586.368121,26.852471 C591.172234,18.5558749 597.69742,12.0033998 605.913023,7.2037884 C614.137385,2.39980572 623.215713,-4.97379915e-14 633.121734,-4.97379915e-14 Z M2239.87527,-4.97379915e-14 C2247.26756,-4.97379915e-14 2253.86282,1.14963371 2259.6479,3.46201481 C2265.41984,5.76128223 2270.95092,9.25826689 2276.22362,13.9267414 C2277.19145,14.752904 2277.71697,15.7976282 2277.71697,16.9778605 C2277.71697,18.1187518 2277.27904,19.1328773 2276.46011,19.9459263 L2276.46011,19.9459263 L2267.50002,29.182337 C2265.81398,30.8652609 2263.78198,30.8652609 2262.00835,29.2304205 C2259.20121,26.7038491 2255.86417,24.6930829 2252.00161,23.1893795 C2248.14343,21.6856761 2244.25459,20.9381957 2240.3132,20.9381957 C2231.4845,20.9381957 2224.08783,24.1291942 2218.03123,30.546161 C2211.96149,36.9806128 2208.93538,44.6783503 2208.93538,53.7093132 C2208.93538,59.5361638 2210.29735,64.9258914 2213.02567,69.9003521 C2215.7496,74.8660703 2219.5202,78.817663 2224.35934,81.7682438 C2229.18097,84.7144534 2234.54126,86.183187 2240.45772,86.183187 C2248.16532,86.183187 2255.35617,83.5123649 2262.07842,78.1270085 C2263.95277,76.658275 2265.92784,76.658275 2267.51754,78.2450318 L2267.51754,78.2450318 L2276.59149,87.5950945 C2277.33159,88.3338325 2277.71697,89.251791 2277.71697,90.2877727 C2277.71697,91.5117173 2277.2878,92.5826689 2276.43383,93.4350589 C2266.40519,103.139191 2254.19565,108 2239.87527,108 C2230.05684,108 2220.95661,105.600194 2212.59211,100.800583 C2204.23199,96.0053426 2197.63236,89.5009511 2192.82387,81.3005221 C2188.01099,73.0957219 2185.60237,64.0341604 2185.60237,54.1464362 C2185.60237,44.2587121 2188.01099,35.1534383 2192.81949,26.852471 C2197.62798,18.5558749 2204.20134,11.9990286 2212.51329,7.19941717 C2220.83399,2.39980572 2229.96049,-4.97379915e-14 2239.87527,-4.97379915e-14 Z M1823.12173,-4.97379915e-14 C1833.03651,-4.97379915e-14 1842.13674,2.39980572 1850.40927,7.19941717 C1858.67743,11.9990286 1865.22451,18.5558749 1870.02862,26.852471 C1874.84149,35.1534383 1877.25012,44.2587121 1877.25012,54.1464362 C1877.25012,64.0341604 1874.84149,73.0957219 1870.02424,81.3005221 C1865.22013,89.4965799 1858.67743,96.0009714 1850.40927,100.800583 C1842.13674,105.600194 1833.03651,108 1823.12173,108 C1813.21571,108 1804.13738,105.600194 1795.91302,100.796212 C1787.69742,95.9966002 1781.17661,89.4965799 1776.3725,81.3005221 C1771.55525,73.0957219 1769.14662,64.0341604 1769.14662,54.1464362 C1769.14662,44.2587121 1771.55525,35.1534383 1776.36812,26.852471 C1781.17223,18.5558749 1787.69742,12.0033998 1795.91302,7.2037884 C1804.13738,2.39980572 1813.21571,-4.97379915e-14 1823.12173,-4.97379915e-14 Z M1049.87527,-4.97379915e-14 C1057.26756,-4.97379915e-14 1063.86282,1.14963371 1069.6479,3.46201481 C1075.41984,5.76128223 1080.95092,9.25826689 1086.22362,13.9267414 C1087.19145,14.752904 1087.71697,15.7976282 1087.71697,16.9778605 C1087.71697,18.1187518 1087.27904,19.1328773 1086.46011,19.9459263 L1086.46011,19.9459263 L1077.50002,29.182337 C1075.81398,30.8652609 1073.78198,30.8652609 1072.00835,29.2304205 C1069.20121,26.7038491 1065.86417,24.6930829 1062.00161,23.1893795 C1058.14343,21.6856761 1054.25459,20.9381957 1050.3132,20.9381957 C1041.4845,20.9381957 1034.08783,24.1291942 1028.03123,30.546161 C1021.96149,36.9806128 1018.93538,44.6783503 1018.93538,53.7093132 C1018.93538,59.5361638 1020.29735,64.9258914 1023.02567,69.9003521 C1025.7496,74.8660703 1029.5202,78.817663 1034.35934,81.7682438 C1039.18097,84.7144534 1044.54126,86.183187 1050.45772,86.183187 C1058.16532,86.183187 1065.35617,83.5123649 1072.07842,78.1270085 C1073.95277,76.658275 1075.92784,76.658275 1077.51754,78.2450318 L1077.51754,78.2450318 L1086.59149,87.5950945 C1087.33159,88.3338325 1087.71697,89.251791 1087.71697,90.2877727 C1087.71697,91.5117173 1087.2878,92.5826689 1086.43383,93.4350589 C1076.40519,103.139191 1064.19565,108 1049.87527,108 C1040.05684,108 1030.95661,105.600194 1022.59211,100.800583 C1014.23199,96.0053426 1007.63236,89.5009511 1002.82387,81.3005221 C998.010994,73.0957219 995.602369,64.0341604 995.602369,54.1464362 C995.602369,44.2587121 998.010994,35.1534383 1002.81949,26.852471 C1007.62798,18.5558749 1014.20134,11.9990286 1022.51329,7.19941717 C1030.83399,2.39980572 1039.96049,-4.97379915e-14 1049.87527,-4.97379915e-14 Z M2007.44728,-4.97379915e-14 C2008.77422,-4.97379915e-14 2009.94787,0.47646416 2010.90694,1.44250617 L2010.90694,1.44250617 L2068.74,62.962 L2068.74023,5.56457684 C2068.74023,4.51735483 2069.09141,3.58320496 2069.77271,2.82512457 L2069.93579,2.65333711 C2070.72845,1.86651556 2071.72255,1.4599911 2072.85679,1.4599911 L2072.85679,1.4599911 L2086.34948,1.4599911 C2087.50562,1.4599911 2088.51724,1.91022787 2089.30552,2.77136034 C2090.05876,3.58878051 2090.45728,4.5373376 2090.45728,5.56457684 L2090.45728,5.56457684 L2090.45728,104.044036 C2090.45728,105.215526 2089.99307,106.220909 2089.10407,106.964018 C2088.28514,107.641559 2087.35234,108 2086.34948,108 L2086.34948,108 L2084.2912,108 C2082.96426,108 2081.79498,107.519165 2080.8184,106.54438 L2080.8184,106.54438 L2022.709,42.624 L2022.70921,102.435423 C2022.70921,103.482645 2022.35804,104.413026 2021.67322,105.174068 L2021.50928,105.346663 C2020.72538,106.133484 2019.72251,106.540009 2018.59265,106.540009 L2018.59265,106.540009 L2005.24448,106.540009 C2004.119,106.540009 2003.11613,106.133484 2002.32786,105.346663 C2001.54396,104.55547 2001.1323,103.563201 2001.1323,102.435423 L2001.1323,102.435423 L2001.1323,3.9559639 C2001.1323,2.81070142 2001.5571,1.81843202 2002.37603,1.07532278 C2003.16431,0.362812158 2004.1409,-4.97379915e-14 2005.24448,-4.97379915e-14 L2005.24448,-4.97379915e-14 Z M707.83292,-4.97379915e-14 C709.164233,-4.97379915e-14 710.329132,0.480835391 711.296962,1.44250617 L711.296962,1.44250617 L769.125,62.957 L769.125873,5.56457684 C769.125873,4.51735483 769.480821,3.58320496 770.162667,2.82512457 L770.325806,2.65333711 C771.109704,1.86651556 772.112568,1.4599911 773.242433,1.4599911 L773.242433,1.4599911 L786.735116,1.4599911 C787.891256,1.4599911 788.907258,1.91022787 789.691156,2.77136034 C790.444399,3.58878051 790.847296,4.5373376 790.847296,5.56457684 L790.847296,5.56457684 L790.847296,104.044036 C790.847296,105.215526 790.383088,106.220909 789.494087,106.964018 C788.670775,107.641559 787.73798,108 786.735116,108 L786.735116,108 L784.681215,108 C783.349902,108 782.185003,107.519165 781.204035,106.54438 L781.204035,106.54438 L723.09,42.619 L723.090469,102.435423 C723.090469,103.482645 722.743072,104.413026 722.062305,105.174068 L721.899294,105.346663 C721.106637,106.133484 720.112531,106.540009 718.982667,106.540009 L718.982667,106.540009 L705.634502,106.540009 C704.500258,106.540009 703.506153,106.133484 702.717875,105.346663 C701.925219,104.55547 701.522321,103.563201 701.522321,102.435423 L701.522321,102.435423 L701.522321,3.9559639 C701.522321,2.81070142 701.938357,1.81843202 702.761669,1.07532278 C703.549946,0.362812158 704.526534,-4.97379915e-14 705.634502,-4.97379915e-14 L705.634502,-4.97379915e-14 Z M817.447282,-4.97379915e-14 C818.774215,-4.97379915e-14 819.947873,0.47646416 820.906944,1.44250617 L820.906944,1.44250617 L878.74,62.962 L878.740234,5.56457684 C878.740234,4.51735483 879.091406,3.58320496 879.772713,2.82512457 L879.935788,2.65333711 C880.728445,1.86651556 881.72255,1.4599911 882.856794,1.4599911 L882.856794,1.4599911 L896.349477,1.4599911 C897.505617,1.4599911 898.51724,1.91022787 899.305517,2.77136034 C900.05876,3.58878051 900.457278,4.5373376 900.457278,5.56457684 L900.457278,5.56457684 L900.457278,104.044036 C900.457278,105.215526 899.99307,106.220909 899.104069,106.964018 C898.285136,107.641559 897.352341,108 896.349477,108 L896.349477,108 L894.291197,108 C892.964263,108 891.794985,107.519165 890.818397,106.54438 L890.818397,106.54438 L832.709,42.624 L832.709209,102.435423 C832.709209,103.482645 832.358037,104.413026 831.673224,105.174068 L831.509276,105.346663 C830.725378,106.133484 829.722513,106.540009 828.592649,106.540009 L828.592649,106.540009 L815.244484,106.540009 C814.118999,106.540009 813.116135,106.133484 812.327857,105.346663 C811.543959,104.55547 811.132303,103.563201 811.132303,102.435423 L811.132303,102.435423 L811.132303,3.9559639 C811.132303,2.81070142 811.557097,1.81843202 812.37603,1.07532278 C813.164307,0.362812158 814.140896,-4.97379915e-14 815.244484,-4.97379915e-14 L815.244484,-4.97379915e-14 Z M8.88588562,-1.3500312e-13 C9.70443764,-1.3500312e-13 10.3916712,0.305191531 10.9519635,0.915574594 C11.516633,1.52595766 11.7924019,2.18865927 11.7924019,2.89931955 L11.7924019,47.4442035 L74.0023558,47.4442035 L74.0023558,2.89931955 C74.0023558,2.08402217 74.2868792,1.39952117 74.8471715,0.841456651 C75.4074638,0.279032257 76.0990746,-1.3500312e-13 76.9132494,-1.3500312e-13 L82.8926187,-1.3500312e-13 C83.7067935,-1.3500312e-13 84.394027,0.305191531 84.9586966,0.915574594 C85.5189888,1.52595766 85.8035123,2.18865927 85.8035123,2.89931955 L85.8035123,103.887197 C85.8035123,104.702495 85.4927251,105.386996 84.8842827,105.94506 C84.2670857,106.507485 83.6061159,106.786517 82.8926187,106.786517 L76.9132494,106.786517 C76.0990746,106.786517 75.4074638,106.481325 74.8471715,105.870942 C74.2868792,105.260559 74.0023558,104.597858 74.0023558,103.887197 L74.0023558,57.6637599 L11.7924019,57.6637599 L11.7924019,103.887197 C11.7924019,104.702495 11.516633,105.386996 10.9519635,105.94506 C10.3916712,106.507485 9.70443764,106.786517 8.88588562,106.786517 L2.91089357,106.786517 C2.09234154,106.786517 1.40073074,106.507485 0.840438443,105.94506 C0.275768864,105.386996 1.33582034e-12,104.702495 1.33582034e-12,103.887197 L1.33582034e-12,2.89931955 C1.33582034e-12,2.08402217 0.302032565,1.39952117 0.919229547,0.841456651 C1.53204924,0.279032257 2.19301906,-1.3500312e-13 2.91089357,-1.3500312e-13 L8.88588562,-1.3500312e-13 Z M111.23553,-1.3500312e-13 C112.154759,-1.3500312e-13 112.973311,0.457787297 113.686809,1.37336189 L144.638581,43.9345009 L175.585975,1.37336189 C176.299473,0.457787297 177.118025,-1.3500312e-13 178.037254,-1.3500312e-13 L185.237886,-1.3500312e-13 C186.157115,-1.3500312e-13 186.870612,0.252872983 187.387132,0.762978829 C187.894897,1.27308467 188.148779,1.93142641 188.148779,2.74672378 C188.148779,3.35710685 187.995574,3.91517136 187.693542,4.42527721 L150.307163,55.2222277 L150.307163,103.887197 C150.307163,104.702495 150.022639,105.386996 149.466724,105.94506 C148.902055,106.507485 148.210444,106.786517 147.396269,106.786517 L141.421277,106.786517 C140.602725,106.786517 139.911114,106.507485 139.350822,105.94506 C138.79053,105.386996 138.510384,104.702495 138.510384,103.887197 L138.510384,55.3748234 L101.583619,4.42527721 C101.27721,4.01980846 101.124005,3.50970261 101.124005,2.89931955 C101.124005,2.08402217 101.377887,1.39952117 101.885652,0.841456651 C102.402172,0.279032257 103.115669,-1.3500312e-13 104.034898,-1.3500312e-13 L111.23553,-1.3500312e-13 Z M1614.87227,-1.3500312e-13 C1624.06457,-1.3500312e-13 1631.93055,3.15655241 1638.47021,9.4565776 C1645.00549,15.7653225 1648.27532,23.4430695 1648.27532,32.4941783 C1648.27532,39.4089465 1646.18298,45.6392136 1641.99392,51.1806198 C1637.80486,56.7220261 1632.34201,60.868271 1625.601,63.6149948 L1646.59007,102.36124 C1646.89648,102.766708 1647.04969,103.276814 1647.04969,103.887197 C1647.04969,104.702495 1646.79143,105.386996 1646.28366,105.94506 C1645.77152,106.507485 1645.00549,106.786517 1643.98559,106.786517 L1636.62737,106.786517 C1635.20038,106.786517 1634.07542,106.023538 1633.26124,104.49758 L1613.34022,64.9883567 L1584.07371,64.9883567 L1584.07371,103.887197 C1584.07371,104.702495 1583.79794,105.386996 1583.23327,105.94506 C1582.67298,106.507485 1581.98137,106.786517 1581.16281,106.786517 L1575.18782,106.786517 C1574.37365,106.786517 1573.68204,106.507485 1573.12174,105.94506 C1572.55707,105.386996 1572.27693,104.702495 1572.27693,103.887197 L1572.27693,2.89931955 C1572.27693,2.08402217 1572.55707,1.39952117 1573.11737,0.841456651 C1573.68204,0.279032257 1574.37365,-1.3500312e-13 1575.18782,-1.3500312e-13 L1614.87227,-1.3500312e-13 Z M1198.88589,-1.3500312e-13 C1199.70444,-1.3500312e-13 1200.39167,0.305191531 1200.95196,0.915574594 C1201.51663,1.52595766 1201.7924,2.18865927 1201.7924,2.89931955 L1201.7924,47.4442035 L1264.00236,47.4442035 L1264.00236,2.89931955 C1264.00236,2.08402217 1264.28688,1.39952117 1264.84717,0.841456651 C1265.40746,0.279032257 1266.09907,-1.3500312e-13 1266.91325,-1.3500312e-13 L1272.89262,-1.3500312e-13 C1273.70679,-1.3500312e-13 1274.39403,0.305191531 1274.9587,0.915574594 C1275.51899,1.52595766 1275.80351,2.18865927 1275.80351,2.89931955 L1275.80351,103.887197 C1275.80351,104.702495 1275.49273,105.386996 1274.88428,105.94506 C1274.26709,106.507485 1273.60612,106.786517 1272.89262,106.786517 L1266.91325,106.786517 C1266.09907,106.786517 1265.40746,106.481325 1264.84717,105.870942 C1264.28688,105.260559 1264.00236,104.597858 1264.00236,103.887197 L1264.00236,57.6637599 L1201.7924,57.6637599 L1201.7924,103.887197 C1201.7924,104.702495 1201.51663,105.386996 1200.95196,105.94506 C1200.39167,106.507485 1199.70444,106.786517 1198.88589,106.786517 L1192.91089,106.786517 C1192.09234,106.786517 1191.40073,106.507485 1190.84044,105.94506 C1190.27577,105.386996 1190,104.702495 1190,103.887197 L1190,2.89931955 C1190,2.08402217 1190.30203,1.39952117 1190.91923,0.841456651 C1191.53205,0.279032257 1192.19302,-1.3500312e-13 1192.91089,-1.3500312e-13 L1198.88589,-1.3500312e-13 Z M1547.30452,-1.3500312e-13 C1548.1187,-1.3500312e-13 1548.81031,0.305191531 1549.37498,0.915574594 C1549.93527,1.52595766 1550.21542,2.18865927 1550.21542,2.89931955 L1550.21542,7.32459675 C1550.21542,8.13553425 1549.93527,8.82439514 1549.37498,9.38245965 C1548.81031,9.94052417 1548.1187,10.2239163 1547.30452,10.2239163 L1495.82329,10.2239163 L1495.82329,47.4442035 L1539.79748,47.4442035 C1540.61604,47.4442035 1541.30327,47.7232358 1541.86356,48.2813003 C1542.42823,48.8437247 1542.70838,49.5282257 1542.70838,50.3435231 L1542.70838,54.7644404 C1542.70838,55.5797378 1542.42823,56.2642388 1541.86356,56.8266632 C1541.30327,57.3847277 1540.61604,57.6637599 1539.79748,57.6637599 L1495.82329,57.6637599 L1495.82329,96.5626006 L1547.30452,96.5626006 C1548.1187,96.5626006 1548.81031,96.8416328 1549.37498,97.4040572 C1549.93527,97.9621217 1550.21542,98.6466227 1550.21542,99.4619201 L1550.21542,103.887197 C1550.21542,104.702495 1549.93527,105.386996 1549.37498,105.94506 C1548.81031,106.507485 1548.1187,106.786517 1547.30452,106.786517 L1486.93741,106.786517 C1486.11448,106.786517 1485.42724,106.507485 1484.86695,105.94506 C1484.30228,105.386996 1484.02651,104.702495 1484.02651,103.887197 L1484.02651,2.89931955 C1484.02651,2.08402217 1484.30228,1.39952117 1484.86695,0.841456651 C1485.42724,0.279032257 1486.11448,-1.3500312e-13 1486.93741,-1.3500312e-13 L1547.30452,-1.3500312e-13 Z M1429.93642,-1.3500312e-13 C1439.33445,-1.3500312e-13 1447.40616,3.3047883 1454.14718,9.91436489 C1460.88819,16.5283014 1464.2587,24.4589213 1464.2587,33.7149445 C1464.2587,43.1715221 1460.88819,51.2590976 1454.14718,57.9689515 C1447.40616,64.6831652 1439.38698,68.0359121 1430.094,68.0359121 L1404.81081,68.0359121 L1404.81081,103.887197 C1404.81081,104.702495 1404.5044,105.386996 1403.89158,105.94506 C1403.27876,106.507485 1402.61342,106.786517 1401.89992,106.786517 L1396.07813,106.786517 C1395.26396,106.786517 1394.56797,106.507485 1394.00768,105.94506 C1393.44739,105.386996 1393.16724,104.702495 1393.16724,103.887197 L1393.16724,2.89931955 C1393.16724,2.08402217 1393.44739,1.39952117 1394.00768,0.841456651 C1394.56797,0.279032257 1395.26396,-1.3500312e-13 1396.07813,-1.3500312e-13 L1429.93642,-1.3500312e-13 Z M239.936421,-1.3500312e-13 C249.334449,-1.3500312e-13 257.40616,3.3047883 264.147176,9.91436489 C270.888193,16.5283014 274.258701,24.4589213 274.258701,33.7149445 C274.258701,43.1715221 270.888193,51.2590976 264.147176,57.9689515 C257.40616,64.6831652 249.386976,68.0359121 240.094003,68.0359121 L214.810813,68.0359121 L214.810813,103.887197 C214.810813,104.702495 214.504403,105.386996 213.891584,105.94506 C213.278764,106.507485 212.613417,106.786517 211.89992,106.786517 L206.078133,106.786517 C205.263958,106.786517 204.56797,106.507485 204.007677,105.94506 C203.447385,105.386996 203.167239,104.702495 203.167239,103.887197 L203.167239,2.89931955 C203.167239,2.08402217 203.447385,1.39952117 204.007677,0.841456651 C204.56797,0.279032257 205.263958,-1.3500312e-13 206.078133,-1.3500312e-13 L239.936421,-1.3500312e-13 Z M357.304525,-1.3500312e-13 C358.1187,-1.3500312e-13 358.81031,0.305191531 359.37498,0.915574594 C359.935272,1.52595766 360.215418,2.18865927 360.215418,2.89931955 L360.215418,7.32459675 C360.215418,8.13553425 359.935272,8.82439514 359.37498,9.38245965 C358.81031,9.94052417 358.1187,10.2239163 357.304525,10.2239163 L305.823293,10.2239163 L305.823293,47.4442035 L349.797484,47.4442035 C350.616036,47.4442035 351.303269,47.7232358 351.863561,48.2813003 C352.428231,48.8437247 352.708377,49.5282257 352.708377,50.3435231 L352.708377,54.7644404 C352.708377,55.5797378 352.428231,56.2642388 351.863561,56.8266632 C351.303269,57.3847277 350.616036,57.6637599 349.797484,57.6637599 L305.823293,57.6637599 L305.823293,96.5626006 L357.304525,96.5626006 C358.1187,96.5626006 358.81031,96.8416328 359.37498,97.4040572 C359.935272,97.9621217 360.215418,98.6466227 360.215418,99.4619201 L360.215418,103.887197 C360.215418,104.702495 359.935272,105.386996 359.37498,105.94506 C358.81031,106.507485 358.1187,106.786517 357.304525,106.786517 L296.937407,106.786517 C296.114478,106.786517 295.427245,106.507485 294.866952,105.94506 C294.302283,105.386996 294.026514,104.702495 294.026514,103.887197 L294.026514,2.89931955 C294.026514,2.08402217 294.302283,1.39952117 294.866952,0.841456651 C295.427245,0.279032257 296.114478,-1.3500312e-13 296.937407,-1.3500312e-13 L357.304525,-1.3500312e-13 Z M424.872274,-1.3500312e-13 C434.064569,-1.3500312e-13 441.930548,3.15655241 448.47021,9.4565776 C455.005494,15.7653225 458.275325,23.4430695 458.275325,32.4941783 C458.275325,39.4089465 456.182983,45.6392136 451.993923,51.1806198 C447.804862,56.7220261 442.342013,60.868271 435.600996,63.6149948 L456.590071,102.36124 C456.89648,102.766708 457.049685,103.276814 457.049685,103.887197 C457.049685,104.702495 456.791426,105.386996 456.283661,105.94506 C455.771518,106.507485 455.005494,106.786517 453.985587,106.786517 L446.627373,106.786517 C445.200379,106.786517 444.075417,106.023538 443.261242,104.49758 L423.340225,64.9883567 L394.073707,64.9883567 L394.073707,103.887197 C394.073707,104.702495 393.797938,105.386996 393.233268,105.94506 C392.672976,106.507485 391.981365,106.786517 391.162813,106.786517 L385.187821,106.786517 C384.373646,106.786517 383.682036,106.507485 383.121743,105.94506 C382.557074,105.386996 382.276928,104.702495 382.276928,103.887197 L382.276928,2.89931955 C382.276928,2.08402217 382.557074,1.39952117 383.117366,0.841456651 C383.682036,0.279032257 384.373646,-1.3500312e-13 385.187821,-1.3500312e-13 L424.872274,-1.3500312e-13 Z M1301.23553,-1.3500312e-13 C1302.15476,-1.3500312e-13 1302.97331,0.457787297 1303.68681,1.37336189 L1334.63858,43.9345009 L1365.58598,1.37336189 C1366.29947,0.457787297 1367.11802,-1.3500312e-13 1368.03725,-1.3500312e-13 L1375.23789,-1.3500312e-13 C1376.15712,-1.3500312e-13 1376.87061,0.252872983 1377.38713,0.762978829 C1377.8949,1.27308467 1378.14878,1.93142641 1378.14878,2.74672378 C1378.14878,3.35710685 1377.99557,3.91517136 1377.69354,4.42527721 L1340.30716,55.2222277 L1340.30716,103.887197 C1340.30716,104.702495 1340.02264,105.386996 1339.46672,105.94506 C1338.90205,106.507485 1338.21044,106.786517 1337.39627,106.786517 L1331.42128,106.786517 C1330.60273,106.786517 1329.91111,106.507485 1329.35082,105.94506 C1328.79053,105.386996 1328.51038,104.702495 1328.51038,103.887197 L1328.51038,55.3748234 L1291.58362,4.42527721 C1291.27721,4.01980846 1291.124,3.50970261 1291.124,2.89931955 C1291.124,2.08402217 1291.37789,1.39952117 1291.88565,0.841456651 C1292.40217,0.279032257 1293.11567,-1.3500312e-13 1294.0349,-1.3500312e-13 L1301.23553,-1.3500312e-13 Z M984.548967,1.4599911 C985.705107,1.4599911 986.721109,1.91022787 987.505007,2.77136034 C988.25825,3.58878051 988.661148,4.5373376 988.661148,5.56457684 L988.661148,5.56457684 L988.661148,17.5679767 C988.661148,18.691383 988.253871,19.6880236 987.469973,20.4792164 C986.677316,21.2616667 985.678831,21.6681912 984.548967,21.6681912 L984.548967,21.6681912 L942.463709,21.6681912 L942.463709,43.0172826 L977.362504,43.0172826 C978.518644,43.0172826 979.530267,43.4675193 980.322924,44.3242806 C981.076167,45.146072 981.474685,46.0946291 981.474685,47.1218683 L981.474685,47.1218683 L981.474685,59.2695188 C981.474685,60.3972963 981.071787,61.3895657 980.279131,62.1807585 C979.490853,62.96758 978.496748,63.3741045 977.362504,63.3741045 L977.362504,63.3741045 L942.463709,63.3741045 L942.463709,86.3318088 L984.548967,86.3318088 C985.705107,86.3318088 986.721109,86.7820456 987.505007,87.6388068 C988.25825,88.456227 988.661148,89.4047841 988.661148,90.4320233 L988.661148,90.4320233 L988.661148,102.435423 C988.661148,103.563201 988.253871,104.55547 987.469973,105.346663 C986.677316,106.133484 985.678831,106.540009 984.548967,106.540009 L984.548967,106.540009 L924.863225,106.540009 C923.728981,106.540009 922.730496,106.133484 921.942219,105.346663 C921.153941,104.55547 920.746664,103.563201 920.746664,102.435423 L920.746664,102.435423 L920.746664,5.56457684 C920.746664,4.43679929 921.153941,3.44015866 921.942219,2.65333711 C922.730496,1.86651556 923.728981,1.4599911 924.863225,1.4599911 L924.863225,1.4599911 Z M1165.88782,1.4599911 C1167.03958,1.4599911 1168.05558,1.91022787 1168.84824,2.76698911 C1169.5971,3.58878051 1170,4.5373376 1170,5.56457684 L1170,5.56457684 L1170,17.5679767 C1170,18.691383 1169.59272,19.6880236 1168.80445,20.4792164 C1168.01617,21.2616667 1167.02206,21.6681912 1165.88782,21.6681912 L1165.88782,21.6681912 L1144.77512,21.6681912 L1144.77512,102.435423 C1144.77512,103.563201 1144.37222,104.55547 1143.57957,105.346663 C1142.79129,106.133484 1141.7928,106.540009 1140.66294,106.540009 L1140.66294,106.540009 L1127.02574,106.540009 C1125.8915,106.540009 1124.89301,106.133484 1124.10473,105.346663 C1123.31646,104.55547 1122.90918,103.563201 1122.90918,102.435423 L1122.90918,102.435423 L1122.90918,21.6681912 L1101.80086,21.6681912 C1100.64034,21.6681912 1099.62872,21.2179544 1098.84044,20.3611932 C1098.0872,19.5394018 1097.6843,18.5908447 1097.6843,17.5679767 L1097.6843,17.5679767 L1097.6843,5.56457684 C1097.6843,4.43679929 1098.09158,3.44015866 1098.87986,2.65333711 C1099.67251,1.86651556 1100.66662,1.4599911 1101.80086,1.4599911 L1101.80086,1.4599911 Z M2355.88782,1.4599911 C2357.03958,1.4599911 2358.05558,1.91022787 2358.84824,2.76698911 C2359.5971,3.58878051 2360,4.5373376 2360,5.56457684 L2360,5.56457684 L2360,17.5679767 C2360,18.691383 2359.59272,19.6880236 2358.80445,20.4792164 C2358.01617,21.2616667 2357.02206,21.6681912 2355.88782,21.6681912 L2355.88782,21.6681912 L2334.77512,21.6681912 L2334.77512,102.435423 C2334.77512,103.563201 2334.37222,104.55547 2333.57957,105.346663 C2332.79129,106.133484 2331.7928,106.540009 2330.66294,106.540009 L2330.66294,106.540009 L2317.02574,106.540009 C2315.8915,106.540009 2314.89301,106.133484 2314.10473,105.346663 C2313.31646,104.55547 2312.90918,103.563201 2312.90918,102.435423 L2312.90918,102.435423 L2312.90918,21.6681912 L2291.80086,21.6681912 C2290.64034,21.6681912 2289.62872,21.2179544 2288.84044,20.3611932 C2288.0872,19.5394018 2287.6843,18.5908447 2287.6843,17.5679767 L2287.6843,17.5679767 L2287.6843,5.56457684 C2287.6843,4.43679929 2288.09158,3.44015866 2288.87986,2.65333711 C2289.67251,1.86651556 2290.66662,1.4599911 2291.80086,1.4599911 L2291.80086,1.4599911 Z M2174.54897,1.4599911 C2175.70511,1.4599911 2176.72111,1.91022787 2177.50501,2.77136034 C2178.25825,3.58878051 2178.66115,4.5373376 2178.66115,5.56457684 L2178.66115,5.56457684 L2178.66115,17.5679767 C2178.66115,18.691383 2178.25387,19.6880236 2177.46997,20.4792164 C2176.67732,21.2616667 2175.67883,21.6681912 2174.54897,21.6681912 L2174.54897,21.6681912 L2132.46371,21.6681912 L2132.46371,43.0172826 L2167.3625,43.0172826 C2168.51864,43.0172826 2169.53027,43.4675193 2170.32292,44.3242806 C2171.07617,45.146072 2171.47468,46.0946291 2171.47468,47.1218683 L2171.47468,47.1218683 L2171.47468,59.2695188 C2171.47468,60.3972963 2171.07179,61.3895657 2170.27913,62.1807585 C2169.49085,62.96758 2168.49675,63.3741045 2167.3625,63.3741045 L2167.3625,63.3741045 L2132.46371,63.3741045 L2132.46371,86.3318088 L2174.54897,86.3318088 C2175.70511,86.3318088 2176.72111,86.7820456 2177.50501,87.6388068 C2178.25825,88.456227 2178.66115,89.4047841 2178.66115,90.4320233 L2178.66115,90.4320233 L2178.66115,102.435423 C2178.66115,103.563201 2178.25387,104.55547 2177.46997,105.346663 C2176.67732,106.133484 2175.67883,106.540009 2174.54897,106.540009 L2174.54897,106.540009 L2114.86322,106.540009 C2113.72898,106.540009 2112.7305,106.133484 2111.94222,105.346663 C2111.15394,104.55547 2110.74666,103.563201 2110.74666,102.435423 L2110.74666,102.435423 L2110.74666,5.56457684 C2110.74666,4.43679929 2111.15394,3.44015866 2111.94222,2.65333711 C2112.7305,1.86651556 2113.72898,1.4599911 2114.86322,1.4599911 L2114.86322,1.4599911 Z M633.121734,21.6725624 C627.297239,21.6725624 621.936952,23.1194398 617.010218,26.0219371 C612.074725,28.9288056 608.150855,32.8847695 605.234228,37.9073137 C602.321981,42.9254867 600.868047,48.3326992 600.868047,54.1464362 C600.868047,62.9632088 604.00364,70.5079532 610.30548,76.8462379 C616.6117,83.1801514 624.187922,86.3318088 633.121734,86.3318088 C638.950607,86.3318088 644.34155,84.8805602 649.320836,81.9736917 C654.304501,79.0668232 658.250268,75.1545716 661.166894,70.2281944 C664.079141,65.3105598 665.528696,59.9601732 665.528696,54.1464362 C665.528696,48.3326992 664.074762,42.9254867 661.162515,37.9073137 C658.245888,32.8891407 654.300122,28.9331768 649.320836,26.0263083 C644.34155,23.1194398 638.950607,21.6725624 633.121734,21.6725624 Z M1823.12173,21.6725624 C1817.29724,21.6725624 1811.93695,23.1194398 1807.01022,26.0219371 C1802.07473,28.9288056 1798.15086,32.8847695 1795.23423,37.9073137 C1792.32198,42.9254867 1790.86805,48.3326992 1790.86805,54.1464362 C1790.86805,62.9632088 1794.00364,70.5079532 1800.30548,76.8462379 C1806.6117,83.1801514 1814.18792,86.3318088 1823.12173,86.3318088 C1828.95061,86.3318088 1834.34155,84.8805602 1839.32084,81.9736917 C1844.3045,79.0668232 1848.25027,75.1545716 1851.16689,70.2281944 C1854.07914,65.3105598 1855.5287,59.9601732 1855.5287,54.1464362 C1855.5287,48.3326992 1854.07476,42.9254867 1851.16251,37.9073137 C1848.24589,32.8891407 1844.30012,28.9331768 1839.32084,26.0263083 C1834.34155,23.1194398 1828.95061,21.6725624 1823.12173,21.6725624 Z M769.125,62.957 L769.125873,66.0012142 L770.457186,66.0012142 L771.131601,65.0919982 L769.125,62.957 Z M2068.74,62.962 L2068.74023,66.0012142 L2070.06717,66.0012142 L2070.74158,65.0919982 L2068.74,62.962 Z M1959.125,62.957 L1959.12587,66.0012142 L1960.45719,66.0012142 L1961.1316,65.0919982 L1959.125,62.957 Z M878.74,62.962 L878.740234,66.0012142 L880.067168,66.0012142 L880.741583,65.0919982 L878.74,62.962 Z M239.174774,11.5972782 L214.810813,11.5972782 L214.810813,56.7481853 L239.174774,56.7481853 C245.605003,56.7481853 251.098494,54.5638859 255.642114,50.1909273 C260.185735,45.8179686 262.461922,40.219884 262.461922,33.4097529 C262.461922,26.9004536 260.211998,21.6380796 255.720905,17.6182711 C251.229812,13.6028225 245.710058,11.5972782 239.174774,11.5972782 Z M1429.17477,11.5972782 L1404.81081,11.5972782 L1404.81081,56.7481853 L1429.17477,56.7481853 C1435.605,56.7481853 1441.09849,54.5638859 1445.64211,50.1909273 C1450.18573,45.8179686 1452.46192,40.219884 1452.46192,33.4097529 C1452.46192,26.9004536 1450.212,21.6380796 1445.72091,17.6182711 C1441.22981,13.6028225 1435.71006,11.5972782 1429.17477,11.5972782 Z M424.110627,11.1394909 L394.384494,11.1394909 L394.384494,54.9170361 L424.110627,54.9170361 C430.028714,54.9170361 435.189531,52.7545362 439.584324,48.433896 C443.974739,44.1132559 446.172136,38.850882 446.172136,32.6467741 C446.172136,26.848135 443.974739,21.8168346 439.584324,17.5441532 C435.189531,13.2714717 430.028714,11.1394909 424.110627,11.1394909 Z M1614.11063,11.1394909 L1584.38449,11.1394909 L1584.38449,54.9170361 L1614.11063,54.9170361 C1620.02871,54.9170361 1625.18953,52.7545362 1629.58432,48.433896 C1633.97474,44.1132559 1636.17214,38.850882 1636.17214,32.6467741 C1636.17214,26.848135 1633.97474,21.8168346 1629.58432,17.5441532 C1625.18953,13.2714717 1620.02871,11.1394909 1614.11063,11.1394909 Z M2022.70921,39.5159267 L2021.3779,39.5159267 L2020.69034,40.4032865 L2022.709,42.624 L2022.70921,39.5159267 Z M832.709209,39.5159267 L831.377896,39.5159267 L830.690343,40.4032865 L832.709,42.624 L832.709209,39.5159267 Z M723.090469,39.5159267 L721.767914,39.5159267 L721.075982,40.4032865 L723.09,42.619 L723.090469,39.5159267 Z M1913.09047,39.5159267 L1911.76791,39.5159267 L1911.07598,40.4032865 L1913.09,42.619 L1913.09047,39.5159267 Z"></path>
                </g>
            </g>
        </g>
    </g>
</svg>