<svg xmlns="http://www.w3.org/2000/svg" xmlns:xlink="http://www.w3.org/1999/xlink" width="500" height="500" viewBox="0 0 500 500">
    <defs>
        <path id="prefix__a" d="M179.396 1.625c-3.333 1.642-6.042 4.375-7.671 7.896L115.192 131.6l-6.38-8.48a16.57 16.57 0 00-14.354-6.583 16.55 16.55 0 00-13.383 8.371L17.587 236.867H9.363c-2.921 0-5.288 2.362-5.288 5.27a5.28 5.28 0 005.288 5.28h350.65a5.283 5.283 0 005.291-5.28c0-2.908-2.37-5.27-5.291-5.27h-8.08L245.408 29.817c-4.141-8.034-14.095-11.288-22.204-7.246l-8.562 4.27-14.33-20.008C197.775 3.3 194.093.987 189.98.204l-10.583 1.421zm1.037 76.612L160.675 58.55l20.658-44.608c1.309-2.834 3.863-3.367 4.9-3.459 1.038-.1 3.646-.058 5.463 2.484l16.962 23.666a5.3 5.3 0 006.671 1.654l12.608-6.283c2.942-1.466 6.55-.283 8.05 2.625l28.034 54.488-8.292 16.529c-.937 1.862-2.67 3.062-4.75 3.283-2.083.217-4.025-.587-5.333-2.22l-14.571-18.15a5.297 5.297 0 00-7.438-.822 5.257 5.257 0 00-.825 7.413l14.567 18.146a16.53 16.53 0 0012.938 6.216c.591 0 1.183-.037 1.775-.091 5.662-.6 10.558-3.988 13.1-9.059l4.82-9.604 70.026 136.109H238l-62.754-72.171a16.53 16.53 0 00-13.13-5.7 16.547 16.547 0 00-12.695 6.604l-4.325 5.742-7.521-9.992c-1.75-2.33-5.067-2.8-7.408-1.054a5.266 5.266 0 00-1.059 7.383l11.755 15.621a5.31 5.31 0 004.233 2.108 5.299 5.299 0 004.233-2.108l8.554-11.367a6.014 6.014 0 014.605-2.4 6.012 6.012 0 014.762 2.067L224 236.87H29.742l60.545-106.774c1.021-1.796 2.788-2.9 4.855-3.034 2.066-.129 3.958.738 5.204 2.388l15.55 20.663a5.302 5.302 0 007.408 1.058 5.265 5.265 0 001.058-7.383l-1.954-2.6 33.542-72.43 16.996 16.938a16.512 16.512 0 0011.742 4.85c4.433 0 8.604-1.721 11.741-4.85l10.15-10.121c.034-.03.117-.108.284-.104.162.008.237.1.262.133l1.7 2.121a5.306 5.306 0 007.438.825 5.265 5.265 0 00.825-7.412l-1.7-2.126a10.958 10.958 0 00-7.946-4.07 10.945 10.945 0 00-8.342 3.175l-10.158 10.12a5.975 5.975 0 01-4.255 1.759c-1.608 0-3.12-.621-4.254-1.758z"/>
        <path id="prefix__c" d="M4.396 5.388v92.07c-3.333 1.642 14.696-.637 10.583-1.42v-40.28h51.263a5.283 5.283 0 004.666-2.787 5.256 5.256 0 00-.258-5.408l-9.358-13.988 9.358-13.988a5.263 5.263 0 00.258-5.412 5.291 5.291 0 00-4.666-2.788H14.979v-6c0-2.908-2.37-5.27-5.291-5.27-2.921 0-5.292 2.362-5.292 5.27zm10.583 16.55h41.38l-5.834 8.712a5.264 5.264 0 000 5.85l5.833 8.708H14.98v-23.27z"/>
    </defs>
    <g fill="none" fill-rule="evenodd">
        <g>
            <path fill="#37E5BA" d="M360.01 332.7h-8.075L245.406 125.654c-4.137-8.037-14.096-11.287-22.2-7.25l-8.562 4.267-14.334-20.004c-2.537-3.534-6.216-5.846-10.333-6.63l-10.583 1.421c-3.33 1.642-6.038 4.375-7.667 7.896l-56.533 122.08-6.384-8.48a16.563 16.563 0 00-14.35-6.583 16.565 16.565 0 00-13.383 8.367L17.585 332.7h-8.22c-2.921 0-5.292 2.363-5.292 5.275 0 2.912 2.37 5.27 5.292 5.27H360.01c2.921 0 5.292-2.358 5.292-5.27 0-2.913-2.37-5.275-5.292-5.275zM90.29 225.93c1.02-1.797 2.787-2.9 4.854-3.034 2.066-.13 3.958.737 5.204 2.387l15.546 20.667a5.306 5.306 0 007.408 1.054 5.261 5.261 0 001.058-7.383l-1.954-2.596 33.542-72.433 16.996 16.937a16.519 16.519 0 0011.741 4.85c4.434 0 8.605-1.72 11.742-4.85l10.154-10.12c.034-.03.117-.109.28-.105.162.008.237.104.266.133l1.7 2.121a5.301 5.301 0 007.438.821 5.26 5.26 0 00.825-7.408l-1.7-2.125a10.978 10.978 0 00-16.292-.896l-10.158 10.12a5.961 5.961 0 01-4.255 1.76c-1.604 0-3.12-.622-4.254-1.76l-19.754-19.687 20.654-44.608c1.313-2.833 3.863-3.367 4.9-3.463 1.038-.095 3.646-.05 5.467 2.488l16.958 23.667a5.31 5.31 0 006.675 1.654l12.609-6.284c2.941-1.466 6.55-.287 8.05 2.626l28.029 54.487-8.292 16.53c-.937 1.866-2.667 3.062-4.746 3.282-2.083.217-4.029-.587-5.337-2.22l-14.567-18.15a5.303 5.303 0 00-7.437-.825 5.266 5.266 0 00-.83 7.416l14.567 18.146a16.545 16.545 0 0012.942 6.217c.587 0 1.183-.034 1.775-.092 5.658-.6 10.558-3.987 13.1-9.058l4.816-9.604L340.04 332.7H238.002l-62.754-72.175c-3.304-3.796-8.083-5.87-13.133-5.696a16.547 16.547 0 00-12.696 6.604l-4.321 5.742-7.52-9.992c-1.755-2.333-5.072-2.8-7.41-1.054a5.262 5.262 0 00-1.058 7.383l11.755 15.621a5.304 5.304 0 008.466 0l8.554-11.366a5.976 5.976 0 014.6-2.396 5.99 5.99 0 014.763 2.062l56.75 65.267H29.744L90.29 225.93z" transform="translate(66.667 79.167)"/>
            <g transform="translate(66.667 79.167) translate(0 95.833)">
                <mask id="prefix__b" fill="#fff">
                    <use xlink:href="#prefix__a"/>
                </mask>
                <path fill="#37E5BA" d="M-405.325 4220.983L3929.438 4220.983 3929.438 -1919.929 -405.325 -1919.929z" mask="url(#prefix__b)"/>
                <path fill="#37E5BA" d="M-1.95 253.433L371.321 253.433 371.321 -5.817 -1.95 -5.817z" mask="url(#prefix__b)"/>
            </g>
            <path fill="#37E5BA" d="M189.979 96.036V55.757h51.262a5.287 5.287 0 004.667-2.783 5.254 5.254 0 00-.263-5.413l-9.354-13.987 9.354-13.988a5.254 5.254 0 00.263-5.412 5.287 5.287 0 00-4.667-2.784H189.98v-6c0-2.912-2.371-5.275-5.292-5.275-2.92 0-5.292 2.363-5.292 5.275v92.071c-3.333 1.638 14.696-.641 10.584-1.425zm41.379-74.1l-5.83 8.713a5.248 5.248 0 000 5.85l5.83 8.712h-41.38V21.936h41.38z" transform="translate(66.667 79.167)"/>
            <g transform="translate(66.667 79.167) translate(175)">
                <mask id="prefix__d" fill="#fff">
                    <use xlink:href="#prefix__c"/>
                </mask>
                <path fill="#37E5BA" d="M-580.325 4316.817L3754.438 4316.817 3754.438 -1824.096 -580.325 -1824.096z" mask="url(#prefix__d)"/>
                <path fill="#37E5BA" d="M-2.038 104.063L77.554 104.063 77.554 -5.904 -2.038 -5.904z" mask="url(#prefix__d)"/>
            </g>
        </g>
        <path d="M0 0H500V500H0z"/>
    </g>
</svg>
