<svg xmlns="http://www.w3.org/2000/svg" xmlns:xlink="http://www.w3.org/1999/xlink" width="500" height="500" viewBox="0 0 500 500">
    <defs>
        <path id="prefix__a" d="M177.962.425c-38.695 0-70.178 31.402-70.178 70.008 0 38.607 31.483 70.013 70.178 70.013h49.96c30.527 0 55.37 24.777 55.37 55.235s-24.843 55.24-55.37 55.24H47.194c-3.126-9.591-12.166-16.545-22.808-16.545-13.223 0-23.985 10.733-23.985 23.931 0 13.194 10.762 23.927 23.985 23.927 10.642 0 19.682-6.954 22.808-16.536h180.726c38.696 0 70.18-31.41 70.18-70.017 0-38.602-31.484-70.012-70.18-70.012h-49.959c-30.532 0-55.366-24.778-55.366-55.236 0-30.457 24.834-55.235 55.366-55.235h5.346c4.09 0 7.406-3.307 7.406-7.386 0-4.08-3.315-7.387-7.406-7.387h-5.346zM15.21 258.307c0-5.049 4.117-9.154 9.177-9.154 5.059 0 9.176 4.105 9.176 9.154 0 5.05-4.117 9.154-9.176 9.154-5.06 0-9.177-4.105-9.177-9.154z"/>
        <path id="prefix__c" d="M7.352.515c-4.06 0-7.356 3.462-7.356 7.731 0 4.27 3.295 7.73 7.356 7.73H27.76c4.062 0 7.357-3.46 7.357-7.73 0-4.27-3.295-7.73-7.357-7.73H7.352z"/>
        <path id="prefix__e" d="M7.545.812C3.451.812.129 4.108.129 8.182V40.41c0 4.07 3.322 7.37 7.416 7.37H43.64v26.517c-9.63 3.115-16.618 12.11-16.618 22.71 0 13.165 10.781 23.875 24.033 23.875 13.248 0 24.034-10.71 24.034-23.876 0-10.6-6.984-19.594-16.618-22.71V8.183c0-4.074-3.322-7.37-7.416-7.37H7.545zm7.42 32.223H43.64V15.548H14.965v17.487zm26.897 63.971c0-5.038 4.124-9.139 9.193-9.139s9.198 4.101 9.198 9.14c0 5.033-4.129 9.13-9.198 9.13-5.069 0-9.193-4.097-9.193-9.13z"/>
    </defs>
    <g fill="none" fill-rule="evenodd">
        <g>
            <path fill="#37E5BA" d="M69.5 312a7.41 7.41 0 005.873-2.893c.642-.837 15.907-20.79 31.43-45.31C128.17 230.05 139 205.017 139 189.395 139 151.13 107.82 120 69.5 120S0 151.13 0 189.396c0 15.622 10.835 40.655 32.196 74.4 15.524 24.52 30.79 44.474 31.431 45.311A7.41 7.41 0 0069.5 312M14.794 189.396c0-30.121 24.542-54.624 54.706-54.624s54.706 24.503 54.706 54.624c0 23.392-35.32 76.424-54.706 102.876-19.382-26.452-54.706-79.484-54.706-102.876" transform="translate(78 64)"/>
            <path fill="#37E5BA" d="M107 188c0-20.953-17.046-38-37.998-38C48.046 150 31 167.047 31 188s17.046 38 38.002 38C89.954 226 107 208.953 107 188m-37.998 24.714c-13.627 0-24.712-11.09-24.712-24.714 0-13.624 11.085-24.714 24.712-24.714 13.623 0 24.708 11.09 24.708 24.714 0 13.624-11.085 24.714-24.708 24.714" transform="translate(78 64)"/>
            <g transform="translate(78 64) translate(45 89)">
                <mask id="prefix__b" fill="#fff">
                    <use xlink:href="#prefix__a"/>
                </mask>
                <path fill="#37E5BA" d="M-477.96 5968.267L4102.905 5968.267 4102.905 -530.78 -477.96 -530.78z" mask="url(#prefix__b)"/>
                <path fill="#37E5BA" d="M-5.96 288.61L304.463 288.61 304.463 -5.947 -5.96 -5.947z" mask="url(#prefix__b)"/>
            </g>
            <path fill="#61C2A7" d="M256.335 104h20.334c4.047 0 7.331-3.134 7.331-7s-3.284-7-7.33-7h-20.335c-4.051 0-7.335 3.134-7.335 7s3.284 7 7.335 7" transform="translate(78 64)"/>
            <g transform="translate(78 64) translate(249 89)">
                <mask id="prefix__d" fill="#fff">
                    <use xlink:href="#prefix__c"/>
                </mask>
                <path fill="#37E5BA" d="M-677.344 6246.769L3875.555 6246.769 3875.555 -555.472 -677.344 -555.472z" mask="url(#prefix__d)"/>
                <path fill="#37E5BA" d="M-6.328 22.646L41.444 22.646 41.444 -6.154 -6.328 -6.154z" mask="url(#prefix__d)"/>
            </g>
            <path fill="#37E5BA" d="M275.424 47.332h36.11v26.722c-9.636 3.135-16.623 12.207-16.623 22.885 0 13.268 10.788 24.061 24.047 24.061C332.213 121 343 110.207 343 96.94c0-10.679-6.983-19.751-16.623-22.886V7.428A7.422 7.422 0 00318.957 0h-43.533A7.423 7.423 0 00268 7.428v32.477a7.426 7.426 0 007.424 7.427zm43.534 40.397c5.071 0 9.198 4.133 9.198 9.21 0 5.078-4.127 9.206-9.198 9.206-5.076 0-9.203-4.128-9.203-9.206 0-5.077 4.127-9.21 9.203-9.21zm-36.11-55.252h28.69V14.855h-28.69v17.622z" transform="translate(78 64)"/>
            <g transform="translate(78 64) translate(268)">
                <mask id="prefix__f" fill="#fff">
                    <use xlink:href="#prefix__e"/>
                </mask>
                <path fill="#37E5BA" d="M-702.422 6044.781L3887.008 6044.781 3887.008 -440.44 -702.422 -440.44z" mask="url(#prefix__f)"/>
                <path fill="#37E5BA" d="M-6.245 127.241L81.459 127.241 81.459 -5.551 -6.245 -5.551z" mask="url(#prefix__f)"/>
            </g>
        </g>
        <path d="M0 0H500V500H0z"/>
    </g>
</svg>
