<svg xmlns="http://www.w3.org/2000/svg" xmlns:xlink="http://www.w3.org/1999/xlink" width="500" height="500" viewBox="0 0 500 500">
    <defs>
        <path id="prefix__a" d="M4.68 2.38a6.621 6.621 0 000 9.366l76.182 76.179-.012 9.125a6.611 6.611 0 006.608 6.625h.009a6.62 6.62 0 006.62-6.612l.017-11.867a6.643 6.643 0 00-1.937-4.688L14.042 2.38A6.617 6.617 0 009.358.442 6.593 6.593 0 004.68 2.379z"/>
        <path id="prefix__c" d="M4.68 2.38a6.621 6.621 0 000 9.366l76.182 76.179-.012 9.125a6.611 6.611 0 006.608 6.625h.009a6.62 6.62 0 006.62-6.612l.017-11.867a6.643 6.643 0 00-1.937-4.688L14.042 2.38A6.634 6.634 0 009.358.442 6.61 6.61 0 004.68 2.379z"/>
        <path id="prefix__e" d="M5.242 5.987a6.616 6.616 0 000 9.363l78.125 78.125a6.634 6.634 0 004.679 1.938h.008l18.367-.025a6.624 6.624 0 006.612-6.63 6.621 6.621 0 00-6.62-6.608h-.013l-15.617.02L14.6 5.988a6.58 6.58 0 00-4.68-1.941 6.58 6.58 0 00-4.678 1.941z"/>
        <path id="prefix__g" d="M5.242 5.987a6.616 6.616 0 000 9.363l78.125 78.125a6.634 6.634 0 004.679 1.938h.008l18.367-.025a6.624 6.624 0 006.612-6.63 6.621 6.621 0 00-6.62-6.608h-.013l-15.617.02L14.6 5.988a6.597 6.597 0 00-4.68-1.941c-1.695 0-3.387.65-4.678 1.941z"/>
        <path id="prefix__i" d="M4.775 5.987a6.677 6.677 0 00-1.938 4.68 6.67 6.67 0 001.938 4.679 6.67 6.67 0 004.68 1.942c1.74 0 3.45-.709 4.678-1.942a6.638 6.638 0 001.942-4.68 6.645 6.645 0 00-1.942-4.679 6.656 6.656 0 00-4.679-1.941 6.67 6.67 0 00-4.679 1.941z"/>
        <path id="prefix__k" d="M122.888 4.537l-56.796 56.8-9.125-.016h-.096c-17.513 0-33.971 6.82-46.354 19.204l-5.95 5.954a6.619 6.619 0 000 9.359 6.614 6.614 0 004.679 1.937 6.61 6.61 0 004.683-1.938l5.946-5.95C29.758 80 42.895 74.563 56.871 74.563h.075l11.87.017h.009c1.758 0 3.442-.7 4.683-1.937L132.25 13.9a6.624 6.624 0 000-9.363 6.61 6.61 0 00-4.683-1.937 6.6 6.6 0 00-4.68 1.937z"/>
        <path id="prefix__m" d="M122.888 4.537l-56.796 56.8-9.125-.016h-.096c-17.513 0-33.971 6.82-46.354 19.204l-5.95 5.954a6.619 6.619 0 000 9.359 6.614 6.614 0 004.679 1.937 6.61 6.61 0 004.683-1.938l5.946-5.95C29.758 80 42.895 74.563 56.871 74.563h.075l11.87.017h.009c1.758 0 3.442-.7 4.683-1.937L132.25 13.9a6.624 6.624 0 000-9.363 6.627 6.627 0 00-4.683-1.937 6.61 6.61 0 00-4.68 1.937z"/>
        <path id="prefix__o" d="M80.333 2.38L2.208 80.507a6.626 6.626 0 00-1.937 4.688l.025 18.367a6.616 6.616 0 006.62 6.608h.009a6.615 6.615 0 006.608-6.63l-.02-15.616 76.183-76.183a6.624 6.624 0 000-9.363 6.593 6.593 0 00-4.68-1.937 6.61 6.61 0 00-4.683 1.937z"/>
        <path id="prefix__q" d="M80.333 2.38L2.208 80.507a6.626 6.626 0 00-1.937 4.688l.025 18.367a6.616 6.616 0 006.62 6.608h.009a6.615 6.615 0 006.608-6.63l-.02-15.616 76.183-76.183a6.624 6.624 0 000-9.363 6.627 6.627 0 00-9.362 0z"/>
        <path id="prefix__s" d="M8.208 4.487a6.61 6.61 0 00-3.579 8.646 52.122 52.122 0 013.992 20.125l-.017 11.867a6.61 6.61 0 001.938 4.692l78.125 78.129a6.627 6.627 0 004.683 1.937c1.692 0 3.388-.65 4.68-1.937a6.629 6.629 0 000-9.367L21.845 42.4l.012-9.125a65.247 65.247 0 00-5-25.208 6.624 6.624 0 00-6.12-4.084 6.6 6.6 0 00-2.53.504z"/>
        <path id="prefix__u" d="M8.208 4.487a6.61 6.61 0 00-3.579 8.646 52.122 52.122 0 013.992 20.125l-.017 11.867a6.61 6.61 0 001.938 4.692l78.125 78.129a6.627 6.627 0 004.683 1.937c1.692 0 3.388-.65 4.68-1.937a6.629 6.629 0 000-9.367L21.845 42.4l.012-9.125a65.247 65.247 0 00-5-25.208 6.63 6.63 0 00-6.12-4.084c-.842 0-1.705.163-2.53.504z"/>
        <path id="prefix__w" d="M27.15 1.575l-18.362.033a6.609 6.609 0 00-6.609 6.625 6.619 6.619 0 006.617 6.613h.012l15.617-.025 76.183 76.187a6.625 6.625 0 004.68 1.938 6.621 6.621 0 004.68-11.304h-.001L31.842 3.52a6.625 6.625 0 00-4.68-1.946h-.012z"/>
        <path id="prefix__y" d="M5.242 2.475a6.669 6.669 0 00-1.938 4.683c0 1.742.704 3.45 1.938 4.68a6.667 6.667 0 004.675 1.937 6.67 6.67 0 004.679-1.938 6.638 6.638 0 001.942-4.679c0-1.741-.705-3.45-1.942-4.683A6.67 6.67 0 009.916.537a6.667 6.667 0 00-4.674 1.938z"/>
        <path id="prefix__A" d="M171.03 7.996L144.603 34.42c-.508-5.358-3.267-10.454-7.97-13.746-4.196-2.938-9.28-4.038-14.321-3.096-5.034.942-9.38 3.8-12.234 8.058L91.95 52.675a65.325 65.325 0 00-11.112 36.604l.025 15.617-76.184 76.183a6.629 6.629 0 000 9.367 6.618 6.618 0 004.68 1.937c1.691 0 3.387-.65 4.683-1.937l78.125-78.13a6.646 6.646 0 001.937-4.691l-.025-18.362a52.159 52.159 0 018.867-29.217l18.129-27.038a5.606 5.606 0 013.67-2.412 5.61 5.61 0 014.3.925 5.69 5.69 0 011.597 7.587L123.554 50.8c-2.229 3.683-1.396 8.292 2 10.954 3.388 2.658 8.063 2.375 11.108-.67l43.725-43.726a5.414 5.414 0 017.655 0 5.364 5.364 0 011.583 3.821c0 1.23-.408 2.392-1.154 3.342l-25.875 25.933a6.616 6.616 0 000 9.363 6.619 6.619 0 009.358 0l33.45-33.513c2.113-2.108 5.546-2.108 7.65 0a5.41 5.41 0 010 7.65l-33.479 33.483a6.619 6.619 0 000 9.359 6.594 6.594 0 004.68 1.941 6.59 6.59 0 004.683-1.941l25.908-25.904c2.117-1.667 5.208-1.525 7.158.425a5.38 5.38 0 011.584 3.825 5.373 5.373 0 01-1.584 3.825l-25.45 25.445a6.629 6.629 0 000 9.367 6.617 6.617 0 004.684 1.938 6.6 6.6 0 004.679-1.938l17.016-17.02c2.121-1.667 5.213-1.53 7.167.428a5.385 5.385 0 011.588 3.826c0 1.445-.567 2.8-1.588 3.825l-47.27 47.266c-9.88 9.888-23.022 15.325-36.993 15.325h-.075l-11.87-.02h-.009a6.634 6.634 0 00-4.683 1.945L67.7 210.85a6.619 6.619 0 000 9.358 6.6 6.6 0 004.683 1.938 6.576 6.576 0 004.68-1.938l59.558-59.554 9.12.013h.096c17.509 0 33.971-6.817 46.359-19.2l47.262-47.271c7.271-7.271 7.271-19.1 0-26.367a18.459 18.459 0 00-5.008-3.57 18.526 18.526 0 002.38-9.117c0-4.98-1.947-9.659-5.468-13.184a18.409 18.409 0 00-5.337-3.733c3.338-6.942 2.137-15.538-3.608-21.28-5.746-5.745-14.338-6.945-21.28-3.612a18.573 18.573 0 00-3.733-5.337 18.607 18.607 0 00-13.187-5.454c-4.775 0-9.55 1.82-13.188 5.454z"/>
        <path id="prefix__C" d="M171.03 7.996L144.603 34.42c-.508-5.358-3.267-10.454-7.97-13.746-4.196-2.938-9.28-4.038-14.321-3.096-5.034.942-9.38 3.8-12.234 8.058L91.95 52.675a65.325 65.325 0 00-11.112 36.604l.025 15.617-76.184 76.183a6.629 6.629 0 000 9.367 6.618 6.618 0 004.68 1.937c1.691 0 3.387-.65 4.683-1.937l78.125-78.13a6.646 6.646 0 001.937-4.691l-.025-18.362a52.159 52.159 0 018.867-29.217l18.129-27.038a5.606 5.606 0 013.67-2.412 5.61 5.61 0 014.3.925 5.69 5.69 0 011.597 7.587L123.554 50.8c-2.229 3.683-1.396 8.292 2 10.954 3.388 2.658 8.063 2.375 11.108-.67l43.725-43.726a5.414 5.414 0 017.655 0 5.364 5.364 0 011.583 3.821c0 1.23-.408 2.392-1.154 3.342l-25.875 25.933a6.616 6.616 0 000 9.363 6.619 6.619 0 009.358 0l33.45-33.513c2.113-2.108 5.546-2.108 7.65 0a5.41 5.41 0 010 7.65l-33.479 33.483a6.619 6.619 0 000 9.359 6.594 6.594 0 004.68 1.941 6.59 6.59 0 004.683-1.941l25.908-25.904c2.117-1.667 5.208-1.525 7.158.425a5.38 5.38 0 011.584 3.825 5.373 5.373 0 01-1.584 3.825l-25.45 25.445a6.629 6.629 0 000 9.367 6.617 6.617 0 004.684 1.938 6.6 6.6 0 004.679-1.938l17.016-17.02c2.121-1.667 5.213-1.53 7.167.428a5.385 5.385 0 011.588 3.826c0 1.445-.567 2.8-1.588 3.825l-47.27 47.266c-9.88 9.888-23.022 15.325-36.993 15.325h-.075l-11.87-.02h-.009a6.634 6.634 0 00-4.683 1.945L67.7 210.85a6.619 6.619 0 000 9.358 6.6 6.6 0 004.683 1.938 6.576 6.576 0 004.68-1.938l59.558-59.554 9.12.013h.096c17.509 0 33.971-6.817 46.359-19.2l47.262-47.271c7.271-7.271 7.271-19.1 0-26.367a18.459 18.459 0 00-5.008-3.57 18.526 18.526 0 002.38-9.117c0-4.98-1.947-9.659-5.468-13.184a18.409 18.409 0 00-5.337-3.733c3.338-6.942 2.137-15.538-3.608-21.28-5.746-5.745-14.338-6.945-21.28-3.612a18.573 18.573 0 00-3.733-5.337 18.61 18.61 0 00-13.191-5.454c-4.771 0-9.55 1.82-13.184 5.454z"/>
    </defs>
    <g fill="none" fill-rule="evenodd">
        <g>
            <path fill="#37E5BA" d="M92.166 130.507L14.04 52.382a6.62 6.62 0 00-9.363 0 6.616 6.616 0 000 9.363l76.184 76.179-.013 9.125a6.623 6.623 0 006.608 6.629h.013a6.619 6.619 0 006.617-6.613l.016-11.87a6.626 6.626 0 00-1.937-4.688" transform="translate(79.167 79.167)"/>
            <g transform="translate(79.167 79.167) translate(0 50)">
                <mask id="prefix__b" fill="#fff">
                    <use xlink:href="#prefix__a"/>
                </mask>
                <path fill="#37E5BA" d="M-2357.296 5671.117L1977.467 5671.117 1977.467 -469.796 -2357.296 -469.796z" mask="url(#prefix__b)"/>
            </g>
            <g transform="translate(79.167 79.167) translate(0 50)">
                <mask id="prefix__d" fill="#fff">
                    <use xlink:href="#prefix__c"/>
                </mask>
                <path fill="#37E5BA" d="M-3.279 109.696L100.125 109.696 100.125 -5.579 -3.279 -5.579z" mask="url(#prefix__d)"/>
            </g>
            <path fill="#37E5BA" d="M152.245 82.149h-.008l-15.621.02L60.432 5.987a6.619 6.619 0 00-9.358 0 6.616 6.616 0 000 9.363L129.2 93.474a6.617 6.617 0 004.68 1.937h.012l18.362-.025a6.618 6.618 0 006.609-6.629 6.615 6.615 0 00-6.617-6.608" transform="translate(79.167 79.167)"/>
            <g transform="translate(79.167 79.167) translate(45.833)">
                <mask id="prefix__f" fill="#fff">
                    <use xlink:href="#prefix__e"/>
                </mask>
                <path fill="#37E5BA" d="M-2403.129 5721.117L1931.633 5721.117 1931.633 -419.796 -2403.129 -419.796z" mask="url(#prefix__f)"/>
            </g>
            <g transform="translate(79.167 79.167) translate(45.833)">
                <mask id="prefix__h" fill="#fff">
                    <use xlink:href="#prefix__g"/>
                </mask>
                <path fill="#37E5BA" d="M-2.721 101.433L119.05 101.433 119.05 -1.971 -2.721 -1.971z" mask="url(#prefix__h)"/>
            </g>
            <path fill="#37E5BA" d="M293.301 5.987a6.67 6.67 0 00-4.679-1.937 6.677 6.677 0 00-4.68 1.937 6.66 6.66 0 00-1.937 4.68c0 1.74.705 3.45 1.938 4.678a6.663 6.663 0 004.68 1.942c1.74 0 3.45-.708 4.678-1.942a6.656 6.656 0 001.942-4.679c0-1.741-.708-3.45-1.942-4.679" transform="translate(79.167 79.167)"/>
            <g transform="translate(79.167 79.167) translate(279.167)">
                <mask id="prefix__j" fill="#fff">
                    <use xlink:href="#prefix__i"/>
                </mask>
                <path fill="#37E5BA" d="M-2636.463 5721.117L1698.3 5721.117 1698.3 -419.796 -2636.463 -419.796z" mask="url(#prefix__j)"/>
                <path fill="#37E5BA" d="M-3.183 23.308L22.096 23.308 22.096 -1.971 -3.183 -1.971z" mask="url(#prefix__j)"/>
            </g>
            <path fill="#37E5BA" d="M273.916 25.372a6.624 6.624 0 00-9.362 0l-56.796 56.796-9.125-.013h-.092c-17.512 0-33.975 6.82-46.358 19.204l-5.95 5.95a6.624 6.624 0 000 9.363 6.607 6.607 0 004.68 1.937 6.603 6.603 0 004.682-1.937l5.946-5.95c9.888-9.888 23.025-15.325 37-15.325h.075l11.867.016h.008c1.759 0 3.442-.7 4.684-1.937l58.741-58.742a6.624 6.624 0 000-9.362" transform="translate(79.167 79.167)"/>
            <g transform="translate(79.167 79.167) translate(141.667 20.833)">
                <mask id="prefix__l" fill="#fff">
                    <use xlink:href="#prefix__k"/>
                </mask>
                <path fill="#37E5BA" d="M-2498.963 5700.283L1835.8 5700.283 1835.8 -440.629 -2498.963 -440.629z" mask="url(#prefix__l)"/>
            </g>
            <g transform="translate(79.167 79.167) translate(141.667 20.833)">
                <mask id="prefix__n" fill="#fff">
                    <use xlink:href="#prefix__m"/>
                </mask>
                <path fill="#37E5BA" d="M-3.392 103.796L140.208 103.796 140.208 -3.421 -3.392 -3.421z" mask="url(#prefix__n)"/>
            </g>
            <path fill="#37E5BA" d="M339.696 52.38a6.624 6.624 0 00-9.363 0l-78.125 78.125a6.628 6.628 0 00-1.937 4.692l.025 18.366a6.619 6.619 0 006.62 6.609h.009a6.621 6.621 0 006.613-6.63l-.026-15.616 76.184-76.183a6.624 6.624 0 000-9.363" transform="translate(79.167 79.167)"/>
            <g transform="translate(79.167 79.167) translate(250 50)">
                <mask id="prefix__p" fill="#fff">
                    <use xlink:href="#prefix__o"/>
                </mask>
                <path fill="#37E5BA" d="M-2607.296 5671.117L1727.467 5671.117 1727.467 -469.796 -2607.296 -469.796z" mask="url(#prefix__p)"/>
            </g>
            <g transform="translate(79.167 79.167) translate(250 50)">
                <mask id="prefix__r" fill="#fff">
                    <use xlink:href="#prefix__q"/>
                </mask>
                <path fill="#37E5BA" d="M-5.75 116.192L97.654 116.192 97.654 -5.579 -5.75 -5.579z" mask="url(#prefix__r)"/>
            </g>
            <path fill="#37E5BA" d="M339.696 285.25l-76.184-76.184.013-9.125a65.262 65.262 0 00-5-25.209 6.627 6.627 0 00-8.654-3.579 6.62 6.62 0 00-3.575 8.65c2.658 6.409 4 13.18 3.992 20.121l-.017 11.871a6.618 6.618 0 001.937 4.688l78.125 78.129a6.603 6.603 0 004.684 1.937 6.6 6.6 0 004.679-1.937c2.583-2.588 2.587-6.78 0-9.363" transform="translate(79.167 79.167)"/>
            <g transform="translate(79.167 79.167) translate(241.667 166.667)">
                <mask id="prefix__t" fill="#fff">
                    <use xlink:href="#prefix__s"/>
                </mask>
                <path fill="#37E5BA" d="M-2598.963 5554.45L1735.8 5554.45 1735.8 -586.462 -2598.963 -586.462z" mask="url(#prefix__t)"/>
            </g>
            <g transform="translate(79.167 79.167) translate(241.667 166.667)">
                <mask id="prefix__v" fill="#fff">
                    <use xlink:href="#prefix__u"/>
                </mask>
                <path fill="#37E5BA" d="M-1.9 135.904L105.987 135.904 105.987 -2.038 -1.9 -2.038z" mask="url(#prefix__v)"/>
            </g>
            <path fill="#37E5BA" d="M293.301 331.642l-78.125-78.125a6.619 6.619 0 00-4.683-1.937h-.008l-18.363.025a6.619 6.619 0 00.008 13.237h.013l15.617-.02 76.179 76.183a6.617 6.617 0 004.683 1.937 6.593 6.593 0 004.68-1.937 6.616 6.616 0 000-9.363" transform="translate(79.167 79.167)"/>
            <g transform="translate(79.167 79.167) translate(183.333 250)">
                <mask id="prefix__x" fill="#fff">
                    <use xlink:href="#prefix__w"/>
                </mask>
                <path fill="#37E5BA" d="M-2540.629 5471.117L1794.133 5471.117 1794.133 -669.796 -2540.629 -669.796z" mask="url(#prefix__x)"/>
                <path fill="#37E5BA" d="M-3.842 98.963L117.929 98.963 117.929 -4.442 -3.842 -4.442z" mask="url(#prefix__x)"/>
            </g>
            <path fill="#37E5BA" d="M60.432 331.644a6.663 6.663 0 00-4.68-1.942c-1.741 0-3.45.709-4.679 1.942a6.652 6.652 0 00-1.937 4.68c0 1.741.704 3.45 1.937 4.678a6.652 6.652 0 004.68 1.938 6.66 6.66 0 004.679-1.938 6.634 6.634 0 001.937-4.679c0-1.741-.7-3.45-1.937-4.679" transform="translate(79.167 79.167)"/>
            <g transform="translate(79.167 79.167) translate(45.833 329.167)">
                <mask id="prefix__z" fill="#fff">
                    <use xlink:href="#prefix__y"/>
                </mask>
                <path fill="#37E5BA" d="M-2403.129 5391.95L1931.633 5391.95 1931.633 -748.962 -2403.129 -748.962z" mask="url(#prefix__z)"/>
                <path fill="#37E5BA" d="M-2.721 19.796L22.558 19.796 22.558 -5.483 -2.721 -5.483z" mask="url(#prefix__z)"/>
            </g>
            <path fill="#37E5BA" d="M239.458 171.993c-1.5-1.5-3.2-2.688-5.008-3.567a18.567 18.567 0 002.375-9.117c0-4.979-1.938-9.662-5.459-13.183a18.539 18.539 0 00-5.341-3.733c3.337-6.942 2.141-15.538-3.609-21.284-5.746-5.746-14.337-6.946-21.275-3.612a18.707 18.707 0 00-3.737-5.334c-7.271-7.27-19.1-7.27-26.371 0l-26.43 26.425c-.503-5.358-3.266-10.454-7.966-13.745a18.795 18.795 0 00-14.32-3.1c-5.038.945-9.384 3.804-12.238 8.058l-18.13 27.042a65.288 65.288 0 00-11.108 36.604l.021 15.616L4.68 285.251a6.619 6.619 0 004.679 11.3c1.696 0 3.387-.65 4.68-1.942l78.128-78.125a6.628 6.628 0 001.938-4.692l-.025-18.362a52.116 52.116 0 018.866-29.217l18.13-27.037a5.637 5.637 0 013.67-2.417 5.617 5.617 0 014.296.93 5.687 5.687 0 011.6 7.587l-7.083 11.691c-2.238 3.684-1.396 8.288 1.996 10.95 3.391 2.663 8.062 2.38 11.112-.666l43.725-43.73a5.417 5.417 0 017.65 0 5.377 5.377 0 011.588 3.826c0 1.229-.413 2.387-1.159 3.337l-25.875 25.938a6.616 6.616 0 000 9.362 6.619 6.619 0 009.359 0l33.454-33.512a5.417 5.417 0 017.65 0 5.417 5.417 0 010 7.65l-33.483 33.483a6.619 6.619 0 009.362 9.358l25.908-25.904c2.121-1.666 5.209-1.529 7.159.425a5.356 5.356 0 011.583 3.825 5.356 5.356 0 01-1.583 3.825l-25.446 25.446a6.621 6.621 0 009.358 9.367l17.017-17.021c2.12-1.667 5.212-1.53 7.167.429a5.373 5.373 0 011.583 3.825c0 1.442-.563 2.8-1.583 3.825l-47.267 47.263c-9.883 9.887-23.02 15.325-36.996 15.325h-.075l-11.87-.013h-.01a6.602 6.602 0 00-4.678 1.938l-61.5 61.5a6.611 6.611 0 000 9.358 6.605 6.605 0 004.679 1.942c1.696 0 3.387-.65 4.68-1.942l59.557-59.554 9.121.012h.096c17.508 0 33.97-6.817 46.358-19.204l47.263-47.267c7.27-7.27 7.27-19.1 0-26.37" transform="translate(79.167 79.167)"/>
            <g transform="translate(79.167 79.167) translate(0 104.167)">
                <mask id="prefix__B" fill="#fff">
                    <use xlink:href="#prefix__A"/>
                </mask>
                <path fill="#37E5BA" d="M-2357.296 5616.95L1977.467 5616.95 1977.467 -523.962 -2357.296 -523.962z" mask="url(#prefix__B)"/>
            </g>
            <g transform="translate(79.167 79.167) translate(0 104.167)">
                <mask id="prefix__D" fill="#fff">
                    <use xlink:href="#prefix__C"/>
                </mask>
                <path fill="#37E5BA" d="M-3.279 228.167L250.933 228.167 250.933 -3.479 -3.279 -3.479z" mask="url(#prefix__D)"/>
            </g>
        </g>
        <path d="M0 0H500V500H0z"/>
    </g>
</svg>
