<svg xmlns="http://www.w3.org/2000/svg" xmlns:xlink="http://www.w3.org/1999/xlink" width="500" height="500" viewBox="0 0 500 500">
    <defs>
        <path id="prefix__a" d="M105.658 3.567l-29.691 24.95-3.088-3.663c-9.296-11.05-25.846-12.475-36.904-3.187-11.054 9.287-12.483 25.825-3.188 36.87l3.084 3.667-29.692 24.95a6.349 6.349 0 00-.77 8.95c31.874 37.875 30.337 37.075 33.891 37.38 3.38.283 4.32-1.197 13.17-8.634 9.155-7.696 23.138-.45 22.11 11.467-.588 6.825-4.634 9.05-13.288 16.325a6.348 6.348 0 00-.775 8.946c31.879 37.879 30.341 37.079 33.895 37.383 3.667.316-2.629 4.637 96.725-78.842 6.759-5.675 7.63-15.787 1.95-22.541L144.3 39.62a6.363 6.363 0 00-8.954-.78 6.35 6.35 0 00-.775 8.95l48.783 57.972a3.293 3.293 0 01-.4 4.645L95.734 183.7l-21.4-25.43c4.066-3.412 11.866-8.84 12.903-20.858 2.009-23.158-25.15-37.237-42.95-22.283l-3.666 3.084-21.4-25.425C51.375 65.77 50.858 67.02 51.158 63.524a6.369 6.369 0 00-1.466-4.633l-7.18-8.525c-4.779-5.684-4.045-14.196 1.642-18.98 5.692-4.783 14.213-4.045 19 1.638l7.171 8.53a6.36 6.36 0 004.317 2.237 6.384 6.384 0 004.637-1.467l29.696-24.95 11.167 13.267a6.355 6.355 0 008.954.775 6.345 6.345 0 00.775-8.946L114.612 4.34a6.335 6.335 0 00-4.866-2.262 6.334 6.334 0 00-4.088 1.488z"/>
        <path id="prefix__c" d="M105.658 3.567l-29.691 24.95-3.088-3.663c-9.296-11.05-25.846-12.475-36.904-3.187-11.054 9.287-12.483 25.825-3.188 36.87l3.084 3.667-29.692 24.95a6.349 6.349 0 00-.77 8.95c31.874 37.875 30.337 37.075 33.891 37.38 3.38.283 4.32-1.197 13.17-8.634 9.155-7.696 23.138-.45 22.11 11.467-.588 6.825-4.634 9.05-13.288 16.325a6.348 6.348 0 00-.775 8.946c31.879 37.879 30.341 37.079 33.895 37.383 3.667.316-2.629 4.637 96.725-78.842 6.759-5.675 7.63-15.787 1.95-22.541L144.3 39.62a6.363 6.363 0 00-8.954-.78 6.35 6.35 0 00-.775 8.95l48.783 57.972a3.293 3.293 0 01-.4 4.645L95.734 183.7l-21.4-25.43c4.066-3.412 11.866-8.84 12.903-20.858 2.009-23.158-25.15-37.237-42.95-22.283l-3.666 3.084-21.4-25.425C51.375 65.77 50.858 67.02 51.158 63.524a6.369 6.369 0 00-1.466-4.633l-7.18-8.525c-4.779-5.684-4.045-14.196 1.642-18.98 5.692-4.783 14.213-4.045 19 1.638l7.171 8.53a6.36 6.36 0 004.317 2.237 6.384 6.384 0 004.637-1.467l29.696-24.95 11.167 13.267a6.355 6.355 0 008.954.775 6.345 6.345 0 00.775-8.946L114.612 4.34a6.366 6.366 0 00-4.866-2.266 6.347 6.347 0 00-4.088 1.492z"/>
        <path id="prefix__e" d="M108.754 1.27a6.352 6.352 0 00-6.354 6.35 6.355 6.355 0 006.354 6.355h24.538v32.413h-4.796c-14.438 0-26.192 11.737-26.192 26.17 0 14.434 11.754 26.171 26.192 26.171h4.796v32.417h-39.6a6.353 6.353 0 00-6.359 6.35v11.137c0 7.43-6.046 13.471-13.479 13.471-7.433 0-13.483-6.042-13.483-13.47v-11.138a6.352 6.352 0 00-6.354-6.35h-39.6V17.275c0-1.82 1.479-3.3 3.3-3.3h66.462a6.353 6.353 0 100-12.704H17.717C8.887 1.267 1.704 8.45 1.704 17.275v240.442c0 8.82 7.183 15.995 16.013 15.995h243.858c8.83 0 16.017-7.174 16.017-15.995V137.496a6.353 6.353 0 00-6.359-6.35h-39.6v-4.792c0-14.429-11.75-26.17-26.191-26.17-14.442 0-26.196 11.741-26.196 26.17v4.792h-33.242V92.379a6.353 6.353 0 00-6.358-6.35h-11.15c-7.43 0-13.48-6.041-13.48-13.47 0-7.43 6.05-13.471 13.48-13.471h11.15a6.353 6.353 0 006.358-6.35V7.62a6.353 6.353 0 00-6.358-6.35h-30.892zm37.25 142.572h39.6a6.352 6.352 0 006.354-6.35v-11.138c0-7.429 6.05-13.47 13.484-13.47 7.433 0 13.479 6.041 13.479 13.47v11.138a6.353 6.353 0 006.358 6.35h39.6v113.875c0 1.816-1.483 3.3-3.304 3.3h-115.57V228.6h4.79c14.443 0 26.193-11.742 26.193-26.17 0-14.434-11.75-26.172-26.192-26.172h-4.792v-32.416zm-45.958 4.791v-4.791h33.246v38.766a6.348 6.348 0 006.354 6.346h11.15c7.433 0 13.479 6.05 13.479 13.475 0 7.43-6.046 13.475-13.48 13.475h-11.15a6.351 6.351 0 00-6.353 6.346v38.767H17.717c-1.821 0-3.3-1.484-3.3-3.3V143.842h33.241v4.791c0 14.434 11.755 26.171 26.196 26.171 14.442 0 26.192-11.737 26.192-26.17z"/>
    </defs>
    <g fill="none" fill-rule="evenodd">
        <g>
            <path fill="#37E5BA" d="M430.587 97.587L381.8 39.62a6.359 6.359 0 00-8.954-.78 6.35 6.35 0 00-.771 8.95l48.783 57.972a3.297 3.297 0 01-.404 4.645l-87.22 73.292-21.4-25.429c4.066-3.413 11.866-8.842 12.908-20.854 2.004-23.163-25.15-37.242-42.954-22.284l-3.671 3.08L256.72 92.79c32.154-27.021 31.633-25.771 31.937-29.267a6.354 6.354 0 00-1.47-4.633l-7.175-8.525c-4.784-5.684-4.046-14.196 1.641-18.983 5.692-4.78 14.213-4.042 18.996 1.641l7.175 8.53a6.37 6.37 0 004.317 2.237 6.384 6.384 0 004.637-1.467l29.696-24.95 11.167 13.271a6.358 6.358 0 008.954.77 6.34 6.34 0 00.775-8.94L352.113 4.34a6.358 6.358 0 00-8.955-.771l-29.691 24.946-3.088-3.663c-9.296-11.046-25.85-12.475-36.904-3.187-11.05 9.287-12.483 25.829-3.188 36.87l3.088 3.667-29.696 24.95a6.35 6.35 0 00-.77 8.95c31.874 37.875 30.337 37.075 33.891 37.38 3.38.287 4.317-1.196 13.17-8.634 9.16-7.696 23.138-.446 22.11 11.471-.588 6.825-4.634 9.046-13.288 16.32-2.684 2.255-3.034 6.263-.775 8.943 31.879 37.883 30.341 37.083 33.896 37.387 3.666.317-2.63 4.637 96.724-78.842 6.755-5.675 7.63-15.787 1.95-22.541" transform="translate(29.167 108.333)"/>
            <g transform="translate(29.167 108.333) translate(237.5)">
                <mask id="prefix__b" fill="#fff">
                    <use xlink:href="#prefix__a"/>
                </mask>
                <path fill="#37E5BA" d="M-2595.833 2870.833L1738.929 2870.833 1738.929 -3270.079 -2595.833 -3270.079z" mask="url(#prefix__b)"/>
            </g>
            <g transform="translate(29.167 108.333) translate(237.5)">
                <mask id="prefix__d" fill="#fff">
                    <use xlink:href="#prefix__c"/>
                </mask>
                <path fill="#37E5BA" d="M-2.104 205.121L202.858 205.121 202.858 -3.942 -2.104 -3.942z" mask="url(#prefix__d)"/>
            </g>
            <path fill="#37E5BA" d="M271.235 143.644h-39.6v-4.788c0-14.429-11.754-26.175-26.196-26.175-14.441 0-26.191 11.746-26.191 26.175v4.788h-33.246v-38.767a6.348 6.348 0 00-6.355-6.346h-11.15c-7.433 0-13.483-6.041-13.483-13.475 0-7.425 6.05-13.47 13.484-13.47h11.15a6.351 6.351 0 006.354-6.346V20.119a6.351 6.351 0 00-6.355-6.346h-30.891c-3.513 0-6.359 2.842-6.359 6.346a6.356 6.356 0 006.359 6.354h24.537v32.412h-4.796c-14.441 0-26.191 11.742-26.191 26.171 0 14.434 11.75 26.175 26.192 26.175h4.795v32.413H93.69a6.355 6.355 0 00-6.354 6.35v11.137c0 7.43-6.046 13.475-13.483 13.475-7.434 0-13.48-6.046-13.48-13.475v-11.137c0-3.504-2.85-6.35-6.358-6.35h-39.6V29.773c0-1.82 1.484-3.3 3.3-3.3h66.467a6.353 6.353 0 006.354-6.354 6.348 6.348 0 00-6.354-6.346H17.714c-8.825-.004-16.012 7.18-16.012 16v240.442c0 8.82 7.187 16 16.012 16h243.863c8.829 0 16.012-7.18 16.012-16V149.994a6.355 6.355 0 00-6.354-6.35m-137.942 91.104v38.767H17.714a3.308 3.308 0 01-3.3-3.3V156.344H47.66v4.787c0 14.434 11.75 26.175 26.192 26.175 14.445 0 26.195-11.741 26.195-26.175v-4.787h33.246v38.766a6.351 6.351 0 006.355 6.346h11.145c7.434 0 13.484 6.046 13.484 13.471 0 7.433-6.05 13.475-13.484 13.475h-11.145a6.351 6.351 0 00-6.355 6.346m128.284 38.767H146.002v-32.413h4.791c14.446 0 26.192-11.746 26.192-26.175 0-14.43-11.746-26.17-26.192-26.17h-4.791v-32.413h39.6a6.356 6.356 0 006.358-6.354v-11.134c0-7.433 6.046-13.475 13.48-13.475 7.437 0 13.483 6.042 13.483 13.475v11.134a6.355 6.355 0 006.354 6.354h39.604v113.87c0 1.817-1.483 3.3-3.304 3.3" transform="translate(29.167 108.333)"/>
            <g transform="translate(29.167 108.333) translate(0 12.5)">
                <mask id="prefix__f" fill="#fff">
                    <use xlink:href="#prefix__e"/>
                </mask>
                <path fill="#37E5BA" d="M-2358.333 2858.333L1976.429 2858.333 1976.429 -3282.579 -2358.333 -3282.579z" mask="url(#prefix__f)"/>
                <path fill="#37E5BA" d="M-4.317 279.733L283.608 279.733 283.608 -4.75 -4.317 -4.75z" mask="url(#prefix__f)"/>
            </g>
        </g>
        <path d="M0 0H500V500H0z"/>
    </g>
</svg>
