<svg xmlns="http://www.w3.org/2000/svg" xmlns:xlink="http://www.w3.org/1999/xlink" width="500" height="500" viewBox="0 0 500 500">
    <defs>
        <path id="prefix__a" d="M39.892 4.263L3.375 40.308a6.017 6.017 0 00-1.346 6.554A6.026 6.026 0 007.58 50.6h.004a6.011 6.011 0 004.209-1.738l36.52-36.045a6.005 6.005 0 00-.104-8.321 5.991 5.991 0 00-4.279-1.792 5.99 5.99 0 00-4.037 1.558z"/>
        <path id="prefix__c" d="M39.892 4.263L3.375 40.308a6.017 6.017 0 00-1.346 6.554A6.026 6.026 0 007.58 50.6h.004a6.011 6.011 0 004.209-1.738l36.52-36.045a6.005 6.005 0 00-.104-8.321 5.993 5.993 0 00-4.283-1.792 5.968 5.968 0 00-4.033 1.558z"/>
        <path id="prefix__e" d="M350.875 4.983L174.488 166.746l-27.638-27.263a6.007 6.007 0 00-8.254.296 6.013 6.013 0 00-.159 8.258l27.221 26.842-20.904 19.167-50.82-15.25-8.409-26.192 28.72-28.383 7.034 6.937a6.017 6.017 0 008.5-.054 6.01 6.01 0 00-.054-8.5l-6.92-6.85 54.732-54.033a6.012 6.012 0 001.738-5.854 5.988 5.988 0 00-4.3-4.354 6.018 6.018 0 00-5.883 1.666l-87.705 86.608-1.587-4.95a6.014 6.014 0 00-4.308-4 5.999 5.999 0 00-5.654 1.592l-50.975 50.967-17.005 16.992a6.015 6.015 0 000 8.495l123.2 123.2a6.015 6.015 0 004.25 1.763H269.38a6.004 6.004 0 006.004-6.009V297.8c-.029-26.533-21.525-48.038-48.062-48.063h-31.3l-40.254-49.533 22.625-20.767L358.996 13.843a6.009 6.009 0 00.37-8.492 5.989 5.989 0 00-4.428-1.946c-1.45 0-2.909.525-4.063 1.58zM31.6 187.646l39.767-39.775 12.054 37.604a5.982 5.982 0 003.996 3.925l58.275 17.492 42.775 52.641a6.026 6.026 0 004.662 2.217h34.163c19.9.02 36.025 16.15 36.05 36.05h-28.938a6.004 6.004 0 00-6.008 6.004 6.011 6.011 0 006.008 6.013h28.959v12.012H131.787L14.604 204.633l8.5-8.496 111.913 111.917a6.03 6.03 0 004.245 1.763h47.08a6.011 6.011 0 006.008-6.013 6.004 6.004 0 00-6.008-6.004h-44.584L31.6 187.646z"/>
        <path id="prefix__g" d="M350.875 4.983L174.488 166.746l-27.638-27.263a6.007 6.007 0 00-8.254.296 6.013 6.013 0 00-.159 8.258l27.221 26.842-20.904 19.167-50.82-15.25-8.409-26.192 28.72-28.383 7.034 6.937a6.017 6.017 0 008.5-.054 6.01 6.01 0 00-.054-8.5l-6.92-6.85 54.732-54.033a6.012 6.012 0 001.738-5.854 5.988 5.988 0 00-4.3-4.354 6.018 6.018 0 00-5.883 1.666l-87.705 86.608-1.587-4.95a6.014 6.014 0 00-4.308-4 5.999 5.999 0 00-5.654 1.592l-50.975 50.967-17.005 16.992a6.015 6.015 0 000 8.495l123.2 123.2a6.015 6.015 0 004.25 1.763H269.38a6.004 6.004 0 006.004-6.009V297.8c-.029-26.533-21.525-48.038-48.062-48.063h-31.3l-40.254-49.533 22.625-20.767L358.996 13.843a6.009 6.009 0 00.37-8.492 5.984 5.984 0 00-4.428-1.942c-1.45 0-2.905.521-4.063 1.575zM31.6 187.646l39.767-39.775 12.054 37.604a5.982 5.982 0 003.996 3.925l58.275 17.492 42.775 52.641a6.026 6.026 0 004.662 2.217h34.163c19.9.02 36.025 16.15 36.05 36.05h-28.938a6.004 6.004 0 00-6.008 6.004 6.011 6.011 0 006.008 6.013h28.959v12.012H131.787L14.604 204.633l8.5-8.496 111.913 111.917a6.03 6.03 0 004.245 1.763h47.08a6.011 6.011 0 006.008-6.013 6.004 6.004 0 00-6.008-6.004h-44.584L31.6 187.646z"/>
        <path id="prefix__i" d="M3.867 6.708a6.014 6.014 0 006.008 6.013 6.011 6.011 0 006.008-6.013A6.005 6.005 0 009.875.7a6.008 6.008 0 00-6.008 6.008z"/>
        <path id="prefix__k" d="M1.058 9.908a6.01 6.01 0 006.009 6.009 6.01 6.01 0 006.008-6.009 6.004 6.004 0 00-6.008-6.004 6.004 6.004 0 00-6.009 6.004z"/>
        <path id="prefix__m" d="M6.1 3.313A6 6 0 00.096 9.316 6.008 6.008 0 006.1 15.329h114.154a6.009 6.009 0 006.008-6.012 6.002 6.002 0 00-6.008-6.005H6.1z"/>
        <path id="prefix__o" d="M7.367 2.92a6.01 6.01 0 00-6.013 6.013 6.01 6.01 0 006.013 6.005h90.12a6.009 6.009 0 006.005-6.005 6.008 6.008 0 00-6.005-6.012H7.367z"/>
        <path id="prefix__q" d="M9.113 2.538a6 6 0 00-6.009 6 6.005 6.005 0 006.009 6.008h72.095a6.003 6.003 0 100-12.008H9.112z"/>
    </defs>
    <g fill="none" fill-rule="evenodd">
        <g>
            <path fill="#37E5BA" d="M215.919 50.598a6.008 6.008 0 004.204-1.733l36.525-36.046a6.009 6.009 0 00-.104-8.321 6.007 6.007 0 00-8.321-.238L211.71 40.306a6.016 6.016 0 00-1.345 6.559 6.018 6.018 0 005.55 3.733h.004z" transform="translate(66.667 66.667)"/>
            <g transform="translate(66.667 66.667) translate(208.333)">
                <mask id="prefix__b" fill="#fff">
                    <use xlink:href="#prefix__a"/>
                </mask>
                <path fill="#37E5BA" d="M-617.633 2909.046L3717.129 2909.046 3717.129 -3231.867 -617.633 -3231.867z" mask="url(#prefix__b)"/>
            </g>
            <g transform="translate(66.667 66.667) translate(208.333)">
                <mask id="prefix__d" fill="#fff">
                    <use xlink:href="#prefix__c"/>
                </mask>
                <path fill="#37E5BA" d="M-4.438 56.617L55.958 56.617 55.958 -3.317 -4.438 -3.317z" mask="url(#prefix__d)"/>
            </g>
            <path fill="#37E5BA" d="M125.06 361.25a6.015 6.015 0 004.25 1.763h140.066a6.009 6.009 0 006.009-6.013v-30.037c-.03-26.533-21.53-48.033-48.067-48.063h-31.3l-40.25-49.525 22.625-20.77L358.997 43.009a6.009 6.009 0 10-8.12-8.859L174.488 195.91l-27.642-27.263a6.006 6.006 0 00-8.25.3 6.004 6.004 0 00-.158 8.254l27.216 26.846-20.9 19.167-50.82-15.25-8.413-26.192 28.725-28.387 7.033 6.937a6.013 6.013 0 008.5-.05c2.33-2.366 2.305-6.175-.058-8.5l-6.917-6.85 54.73-54.033a6.01 6.01 0 001.741-5.858 6.015 6.015 0 00-4.3-4.355 6.015 6.015 0 00-5.883 1.671l-87.704 86.609L79.8 164a6.016 6.016 0 00-4.308-3.995 6.02 6.02 0 00-5.658 1.591L18.864 212.56 1.86 229.555a6.015 6.015 0 000 8.495l123.2 123.2zM23.105 225.305l111.913 111.912a6.005 6.005 0 004.246 1.763h47.079a6.004 6.004 0 006.004-6.009 6.004 6.004 0 00-6.004-6.008h-44.588L31.601 216.813l39.763-39.775 12.054 37.604a6.007 6.007 0 003.996 3.925l58.279 17.492 42.775 52.637a6.01 6.01 0 004.662 2.221h34.163c19.9.02 36.025 16.146 36.046 36.046h-28.934a6.008 6.008 0 100 12.017h28.959v12.016H131.789L14.605 233.8l8.5-8.495z" transform="translate(66.667 66.667)"/>
            <g transform="translate(66.667 66.667) translate(0 29.167)">
                <mask id="prefix__f" fill="#fff">
                    <use xlink:href="#prefix__e"/>
                </mask>
                <path fill="#37E5BA" d="M-409.3 2879.879L3925.463 2879.879 3925.463 -3261.033 -409.3 -3261.033z" mask="url(#prefix__f)"/>
            </g>
            <g transform="translate(66.667 66.667) translate(0 29.167)">
                <mask id="prefix__h" fill="#fff">
                    <use xlink:href="#prefix__g"/>
                </mask>
                <path fill="#37E5BA" d="M-5.917 339.863L366.967 339.863 366.967 -2.617 -5.917 -2.617z" mask="url(#prefix__h)"/>
            </g>
            <path fill="#37E5BA" d="M149.218 260.876a6.01 6.01 0 01-6.009 6.009 6.008 6.008 0 110-12.017 6.008 6.008 0 016.008 6.008" transform="translate(66.667 66.667)"/>
            <g transform="translate(66.667 66.667) translate(133.333 254.167)">
                <mask id="prefix__j" fill="#fff">
                    <use xlink:href="#prefix__i"/>
                </mask>
                <path fill="#37E5BA" d="M-542.633 2654.879L3792.129 2654.879 3792.129 -3486.033 -542.633 -3486.033z" mask="url(#prefix__j)"/>
                <path fill="#37E5BA" d="M-2.15 18.738L21.904 18.738 21.904 -5.317 -2.15 -5.317z" mask="url(#prefix__j)"/>
            </g>
            <path fill="#37E5BA" d="M167.241 284.908a6.01 6.01 0 01-6.008 6.008 6.01 6.01 0 01-6.008-6.008 6.004 6.004 0 016.008-6.004 6.004 6.004 0 016.008 6.004" transform="translate(66.667 66.667)"/>
            <g transform="translate(66.667 66.667) translate(154.167 275)">
                <mask id="prefix__l" fill="#fff">
                    <use xlink:href="#prefix__k"/>
                </mask>
                <path fill="#37E5BA" d="M-563.467 2634.046L3771.296 2634.046 3771.296 -3506.867 -563.467 -3506.867z" mask="url(#prefix__l)"/>
                <path fill="#37E5BA" d="M-4.963 21.933L19.092 21.933 19.092 -2.121 -4.963 -2.121z" mask="url(#prefix__l)"/>
            </g>
            <path fill="#37E5BA" d="M6.102 86.645A6.007 6.007 0 00.094 92.65a6.011 6.011 0 006.008 6.012h114.15a6.009 6.009 0 006.008-6.012 6.004 6.004 0 00-6.008-6.005H6.102z" transform="translate(66.667 66.667)"/>
            <g transform="translate(66.667 66.667) translate(0 83.333)">
                <mask id="prefix__n" fill="#fff">
                    <use xlink:href="#prefix__m"/>
                </mask>
                <path fill="#37E5BA" d="M-409.3 2825.713L3925.463 2825.713 3925.463 -3315.2 -409.3 -3315.2z" mask="url(#prefix__n)"/>
                <path fill="#37E5BA" d="M-5.925 21.35L132.283 21.35 132.283 -2.708 -5.925 -2.708z" mask="url(#prefix__n)"/>
            </g>
            <path fill="#37E5BA" d="M174.325 50.598a6.008 6.008 0 00-6.008-6.008H78.2a6.009 6.009 0 00-6.012 6.008 6.008 6.008 0 006.012 6.004h90.117a6.007 6.007 0 006.008-6.004" transform="translate(66.667 66.667)"/>
            <g transform="translate(66.667 66.667) translate(70.833 41.667)">
                <mask id="prefix__p" fill="#fff">
                    <use xlink:href="#prefix__o"/>
                </mask>
                <path fill="#37E5BA" d="M-480.133 2867.379L3854.629 2867.379 3854.629 -3273.533 -480.133 -3273.533z" mask="url(#prefix__p)"/>
                <path fill="#37E5BA" d="M-4.662 20.958L109.513 20.958 109.513 -3.096 -4.662 -3.096z" mask="url(#prefix__p)"/>
            </g>
            <path fill="#37E5BA" d="M216.382 8.54a6.004 6.004 0 00-6.008-6.004h-72.096a6.004 6.004 0 100 12.008h72.096a6.007 6.007 0 006.008-6.004" transform="translate(66.667 66.667)"/>
            <g transform="translate(66.667 66.667) translate(129.167)">
                <mask id="prefix__r" fill="#fff">
                    <use xlink:href="#prefix__q"/>
                </mask>
                <path fill="#37E5BA" d="M-538.467 2909.046L3796.296 2909.046 3796.296 -3231.867 -538.467 -3231.867z" mask="url(#prefix__r)"/>
                <path fill="#37E5BA" d="M-2.917 20.567L93.237 20.567 93.237 -3.487 -2.917 -3.487z" mask="url(#prefix__r)"/>
            </g>
        </g>
        <path d="M0 0H500V500H0z"/>
    </g>
</svg>
