<svg xmlns="http://www.w3.org/2000/svg" xmlns:xlink="http://www.w3.org/1999/xlink" width="500" height="500" viewBox="0 0 500 500">
    <defs>
        <path id="prefix__a" d="M9.438 6.792a22.849 22.849 0 000 32.546l31.345 31.054L72.13 39.37c9.084-8.996 9.084-23.563 0-32.55-8.608-8.196-22.017-8.804-31.346-1.425A23.887 23.887 0 0025.917.229c-5.963 0-11.9 2.204-16.48 6.563z"/>
        <path id="prefix__c" d="M9.438 6.792a22.849 22.849 0 000 32.546l31.345 31.054L72.13 39.37c9.084-8.996 9.084-23.563 0-32.55-8.608-8.196-22.017-8.804-31.346-1.425A23.89 23.89 0 0025.913.229C19.954.23 14.02 2.437 9.437 6.792z"/>
        <path id="prefix__e" d="M44.358 2.025l-17.604 17.6L9.212 2.087a4.758 4.758 0 00-6.741 0L1.55 3a4.776 4.776 0 000 6.75l17.542 17.538-17.604 17.6a4.776 4.776 0 000 6.75l.92.912a4.77 4.77 0 006.746 0l17.6-17.6 17.517 17.517a4.766 4.766 0 006.742 0l.925-.917a4.778 4.778 0 000-6.746L34.416 27.287 52.02 9.684a4.77 4.77 0 000-6.745l-.921-.913a4.741 4.741 0 00-3.37-1.4c-1.222 0-2.442.467-3.372 1.4z"/>
        <path id="prefix__g" d="M44.358 2.025l-17.604 17.6L9.212 2.087a4.758 4.758 0 00-6.741 0L1.55 3a4.776 4.776 0 000 6.75l17.542 17.538-17.604 17.6a4.776 4.776 0 000 6.75l.92.912a4.77 4.77 0 006.746 0l17.6-17.6 17.517 17.517a4.766 4.766 0 006.742 0l.925-.917a4.778 4.778 0 000-6.746L34.416 27.287 52.02 9.684a4.77 4.77 0 000-6.745l-.921-.913a4.748 4.748 0 00-3.37-1.4c-1.222 0-2.442.467-3.372 1.4z"/>
    </defs>
    <g fill="none" fill-rule="evenodd">
        <g>
            <g fill="#37E5BA">
                <path d="M93.84 309.782c-23.333 0-46.429-9.121-63.829-26.454-35.179-35.025-35.62-91.817-.991-126.596 25.387-25.28 63.366-32.717 96.779-18.963a5.416 5.416 0 012.946 7.075 5.413 5.413 0 01-7.071 2.946c-29.363-12.083-62.725-5.567-84.992 16.604-30.396 30.534-29.967 80.446.975 111.258 24.058 23.959 60.463 30.109 90.588 15.305a5.431 5.431 0 013.5-.442l32.533 6.8c.217.05.425.104.637.175 1 .342 2.067.275 2.996-.188a3.757 3.757 0 001.9-2.2c.263-.8.259-1.687-.016-2.495-.071-.209-.13-.421-.175-.634l-6.8-32.533a5.435 5.435 0 01.441-3.5c4.692-9.542 7.346-19.733 7.892-30.3a5.409 5.409 0 015.692-5.133 5.42 5.42 0 015.133 5.691 88.09 88.09 0 01-8.175 32.817l6.367 30.454c.912 2.93.891 6.117-.063 9.021a14.513 14.513 0 01-7.358 8.508c-3.43 1.713-7.313 2.013-10.975.867l-30.454-6.367a88.731 88.731 0 01-37.48 8.284M383.666 309.75a88.294 88.294 0 01-37.346-8.267l-30.45 6.366c-2.933.913-6.12.892-9.025-.066a14.518 14.518 0 01-8.508-7.355 14.656 14.656 0 01-.863-10.979l6.363-30.45a88.343 88.343 0 01-8.046-31.07 5.408 5.408 0 015.017-5.788c2.966-.221 5.579 2.029 5.791 5.012a77.47 77.47 0 007.784 28.771 5.403 5.403 0 01.437 3.5l-6.8 32.53c-.046.216-.104.428-.175.637a3.913 3.913 0 00.192 3.004 3.787 3.787 0 002.2 1.9c.796.258 1.683.25 2.491-.02.209-.072.421-.134.634-.176l32.533-6.8a5.428 5.428 0 013.5.442c38.758 19.046 86.175 2.8 105.704-36.213 7.754-15.491 10.225-32.62 7.146-49.541a77.601 77.601 0 00-7.68-22.296 5.418 5.418 0 119.588-5.046 88.455 88.455 0 018.755 25.4c3.5 19.25.691 38.73-8.121 56.333-15.867 31.709-47.988 50.167-81.121 50.171M444.782 165.958a5.419 5.419 0 01-3.825-1.579c-21.333-21.242-52.425-28.175-81.146-18.091a5.414 5.414 0 01-6.908-3.317 5.422 5.422 0 013.317-6.909c32.679-11.47 68.079-3.562 92.383 20.634a5.422 5.422 0 01-3.82 9.262" transform="translate(12.5 95.833)"/>
                <path d="M240.353 286.62c-1.97 0-3.946-.32-5.87-.962a18.413 18.413 0 01-10.509-8.941l-24.42-34.013c-49.167-17.462-82.159-64.175-82.268-116.796-.15-68.45 55.047-124.262 123.038-124.408 24.954.054 48.996 7.596 69.55 21.8a5.421 5.421 0 011.375 7.537 5.415 5.415 0 01-7.537 1.375c-18.742-12.954-40.659-19.82-63.388-19.87-61.992.129-112.337 51.066-112.204 113.541.104 48.575 30.88 91.63 76.57 107.138a5.398 5.398 0 012.663 1.967l25.659 35.741c.175.233.325.492.458.754a7.66 7.66 0 004.454 3.9c1.93.642 4 .496 5.825-.42a7.783 7.783 0 003.454-3.484c.13-.258.284-.517.454-.75l25.659-35.741a5.416 5.416 0 012.662-1.967c58.784-19.946 90.492-84.346 70.684-143.558a113.332 113.332 0 00-17.35-32.805 5.415 5.415 0 011.025-7.596 5.414 5.414 0 017.591 1.026 124.091 124.091 0 0119.009 35.933c21.512 64.3-12.463 134.191-75.821 156.683l-24.421 34.013a18.703 18.703 0 01-8.088 7.933 18.367 18.367 0 01-8.254 1.97" transform="translate(12.5 95.833)"/>
                <path d="M240.351 73.893c-28.096 0-50.875 22.846-50.875 51.03 0 28.182 22.78 51.028 50.875 51.028 28.096 0 50.875-22.846 50.875-51.029-.033-28.167-22.791-50.992-50.875-51.03" transform="translate(12.5 95.833)"/>
            </g>
            <path fill="#37E5BA" d="M240.34 84.732c-22.07.005-40.024 18.034-40.024 40.192s17.958 40.188 40.033 40.188c22.08 0 40.042-18.03 40.042-40.188-.03-22.129-17.996-40.162-40.05-40.192m.008 102.055c-34.025 0-61.712-27.755-61.712-61.863 0-34.112 27.687-61.867 61.712-61.867h.017c33.979.042 61.658 27.788 61.696 61.855 0 34.12-27.684 61.875-61.713 61.875M417.963 198.486c-8.604-8.196-22.016-8.8-31.346-1.425-9.32-7.383-22.733-6.792-31.345 1.396-9.08 8.987-9.08 23.558 0 32.55l31.346 31.054 31.345-31.025c9.08-8.992 9.08-23.563 0-32.55" transform="translate(12.5 95.833)"/>
            <g transform="translate(12.5 95.833) translate(345.833 191.667)">
                <mask id="prefix__b" fill="#fff">
                    <use xlink:href="#prefix__a"/>
                </mask>
                <path fill="#37E5BA" d="M-800.033 1295.092L3534.729 1295.092 3534.729 -4845.821 -800.033 -4845.821z" mask="url(#prefix__b)"/>
            </g>
            <g transform="translate(12.5 95.833) translate(345.833 191.667)">
                <mask id="prefix__d" fill="#fff">
                    <use xlink:href="#prefix__c"/>
                </mask>
                <path fill="#37E5BA" d="M16.983 14.57c-2.267 2.288-3.517 5.297-3.517 8.492 0 3.234 1.275 6.28 3.596 8.58l23.725 23.5 23.72-23.471c2.318-2.296 3.597-5.346 3.597-8.575 0-3.2-1.25-6.213-3.525-8.5-4.692-4.396-12.013-4.704-17.071-.7l-6.73 5.32-6.724-5.324C29 9.883 21.679 10.183 16.983 14.57zm23.796 71.076L1.808 47.038C-4.65 40.642-8.21 32.129-8.21 23.063c0-9.059 3.559-17.575 10.021-23.976l.158-.154c10.525-9.995 26.105-12.179 38.821-6.2 12.721-5.97 28.3-3.77 38.813 6.238l.15.15c6.466 6.396 10.025 14.912 10.025 23.975 0 9.062-3.559 17.575-10.025 23.975L40.779 85.646z" mask="url(#prefix__d)"/>
            </g>
            <path fill="#37E5BA" d="M101.083 223.12l17.52 17.516a4.778 4.778 0 010 6.746l-.92.92a4.778 4.778 0 01-6.746 0l-17.517-17.52-17.6 17.6a4.768 4.768 0 01-6.75 0l-.916-.912a4.77 4.77 0 010-6.746l17.604-17.604-17.538-17.538a4.77 4.77 0 010-6.746l.917-.916a4.77 4.77 0 016.746 0l17.537 17.537 17.605-17.6a4.758 4.758 0 016.741 0l.921.913a4.77 4.77 0 010 6.745l-17.604 17.605z" transform="translate(12.5 95.833)"/>
            <g transform="translate(12.5 95.833) translate(66.667 195.833)">
                <mask id="prefix__f" fill="#fff">
                    <use xlink:href="#prefix__e"/>
                </mask>
                <path fill="#37E5BA" d="M-520.867 1290.925L3813.896 1290.925 3813.896 -4849.988 -520.867 -4849.988z" mask="url(#prefix__f)"/>
            </g>
            <g transform="translate(12.5 95.833) translate(66.667 195.833)">
                <mask id="prefix__h" fill="#fff">
                    <use xlink:href="#prefix__g"/>
                </mask>
                <path fill="#37E5BA" d="M26.817 -30.774L84.797 27.201 26.668 85.33 -31.312 27.351z" mask="url(#prefix__h)"/>
            </g>
        </g>
        <path d="M0 0H500V500H0z"/>
    </g>
</svg>
