<svg xmlns="http://www.w3.org/2000/svg" xmlns:xlink="http://www.w3.org/1999/xlink" width="56" height="56" viewBox="0 0 56 56">
    <defs>
        <path id="prefix__a" d="M0 0L47.6 0 47.6 47.6 0 47.6z"/>
    </defs>
    <g fill="none" fill-rule="evenodd">
        <path fill="#FFF" d="M0 0H1920V7175H0z" transform="translate(-1400 -6999)"/>
        <g>
            <path d="M0 0H56V56H0z" transform="translate(-1400 -6999) translate(1400 6999)"/>
            <g transform="translate(-1400 -6999) translate(1400 6999) translate(4.2 4.2)">
                <mask id="prefix__b" fill="#fff">
                    <use xlink:href="#prefix__a"/>
                </mask>
                <path fill="#37E5BA" d="M11.766 13.108c-.005 1.705 1.373 3.106 3.049 3.101 1.665-.004 3.083-1.444 3.061-3.109-.02-1.66-1.398-3.055-3.042-3.08-1.66-.025-3.063 1.387-3.068 3.088zm.52 22.12h5.088V18.453h-5.088V35.23zm13.484.011v-.656c0-2.785-.018-5.57.014-8.355a5.573 5.573 0 01.32-1.737c.447-1.278 1.638-1.976 3.048-1.874 1.357.098 2.187.81 2.501 2.209.113.5.185 1.022.188 1.535.018 2.746.009 5.493.009 8.24v.639h5.117v-.644c0-3.323.004-6.645-.005-9.968a10.965 10.965 0 00-.106-1.546c-.325-2.229-1.372-3.976-3.584-4.729-2.307-.785-4.513-.554-6.415 1.13-.366.324-.672.713-1.094 1.167v-2.172h-4.94V35.24h4.947zM24.953 47.6h-2.424c-.088-.028-.175-.067-.265-.081-1.457-.23-2.946-.336-4.366-.704C5.279 43.547-2.234 31.197.594 18.444 3.492 5.374 17.177-2.771 30.117.871c9.61 2.705 16.334 10.687 17.353 20.665.486 4.764-.385 9.302-2.705 13.492-3.63 6.553-9.14 10.626-16.518 12.105-1.086.218-2.196.314-3.294.467z" mask="url(#prefix__b)"/>
            </g>
        </g>
    </g>
</svg>
