<svg xmlns="http://www.w3.org/2000/svg" width="56" height="56" viewBox="0 0 56 56">
    <g fill="none" fill-rule="evenodd">
        <path d="M0 0H56V56H0z"/>
        <path fill="#37E5BA" d="M39.2 7.095v6.967c-1.33 0-2.573-.053-3.812.01-2.618.135-3.554 1.169-3.595 3.91-.023 1.468-.004 2.938.003 4.407 0 .186.044.373.095.774h6.728l-.976 7.775h-5.757V50.4h-7.61V31.011H18.2v-7.72h6.044c0-1.377-.042-2.623.01-3.864.077-1.782.069-3.591.372-5.334.648-3.73 3.241-6.507 6.769-6.939 2.524-.308 5.107-.06 7.805-.06"/>
    </g>
</svg>
