<svg xmlns="http://www.w3.org/2000/svg" width="56" height="56" viewBox="0 0 56 56">
    <g fill="none" fill-rule="evenodd">
        <path fill="#FFF" d="M0 0H1920V7175H0z" transform="translate(-1624 -6999)"/>
        <g>
            <path d="M0 0H56V56H0z" transform="translate(-1624 -6999) translate(1624 6999)"/>
            <path fill="#37E5BA" d="M39.468 7.837c6.536 3.565 10.535 9.01 11.946 16.314.167.869.252 1.753.375 2.63v2.762c-.03.133-.068.265-.088.399-.163 1.09-.261 2.192-.492 3.267-1.96 9.133-9.846 16.429-19.093 17.694-.68.093-1.362.182-2.043.273h-2.772c-.131-.031-.26-.07-.394-.093-1.466-.253-2.968-.38-4.395-.776C12.856 47.63 6.067 39.166 5.626 29.244c-.256-5.752 1.397-10.944 5.039-15.43 4.382-5.398 10.118-8.27 17.07-8.625 4.14-.212 8.09.661 11.733 2.648zm-7.917 24.014c-.58 0-1.1.103-1.563.308a3.344 3.344 0 00-1.171.848c-.318.36-.562.782-.732 1.267a4.729 4.729 0 00-.254 1.574c0 .55.085 1.065.254 1.542.17.477.414.892.732 1.245.318.354.708.631 1.17.833a3.88 3.88 0 001.564.302c.587 0 1.11-.101 1.57-.303.459-.2.847-.478 1.165-.832.318-.353.562-.768.732-1.245.17-.477.254-.991.254-1.542 0-.566-.085-1.09-.254-1.575a3.781 3.781 0 00-.732-1.266 3.356 3.356 0 00-1.166-.848c-.46-.205-.982-.308-1.569-.308zm7.967 0c-.58 0-1.1.103-1.563.308a3.344 3.344 0 00-1.172.848c-.318.36-.561.782-.731 1.267a4.729 4.729 0 00-.254 1.574c0 .55.084 1.065.254 1.542.17.477.413.892.731 1.245.318.354.709.631 1.172.833a3.88 3.88 0 001.563.302c.368 0 .732-.076 1.092-.228.36-.152.689-.419.986-.8l.17.858h1.06v-4.092h-3.18v1.24h1.674c-.05.53-.224.935-.525 1.214-.3.28-.726.419-1.277.419-.374 0-.692-.072-.954-.217a1.82 1.82 0 01-.636-.578c-.162-.24-.28-.51-.355-.81-.074-.301-.111-.61-.111-.928 0-.333.037-.654.111-.965.074-.31.193-.588.355-.832.163-.244.375-.438.636-.583.262-.145.58-.217.954-.217.403 0 .746.106 1.028.318.283.212.474.53.573.954h1.59a2.825 2.825 0 00-.35-1.145 2.816 2.816 0 00-.726-.838 3.199 3.199 0 00-.986-.514 3.677 3.677 0 00-1.129-.175zm-20.985.18H14.97V39.6h3.668c.339 0 .67-.042.99-.127a2.65 2.65 0 00.86-.392c.25-.177.45-.405.598-.684.149-.28.223-.61.223-.991 0-.474-.115-.878-.345-1.214-.23-.336-.577-.57-1.044-.705.34-.162.596-.37.769-.625.173-.255.26-.573.26-.954 0-.354-.059-.65-.175-.89a1.454 1.454 0 00-.493-.578 2.129 2.129 0 00-.763-.313 4.714 4.714 0 00-.986-.095zm5.285 0h-1.664V39.6h5.353v-1.4h-3.69v-6.168zm7.733 1.22c.375 0 .693.072.954.217.262.145.474.34.636.583.163.244.281.521.355.832.075.31.112.632.112.965 0 .318-.037.627-.111.927-.075.3-.193.57-.356.811a1.82 1.82 0 01-.636.578c-.261.145-.58.217-.954.217s-.692-.072-.954-.217a1.82 1.82 0 01-.636-.578c-.162-.24-.28-.51-.355-.81-.074-.301-.111-.61-.111-.928 0-.333.037-.654.111-.965.074-.31.193-.588.355-.832.163-.244.375-.438.636-.583.262-.145.58-.217.954-.217zm-13.103 2.978c.36 0 .65.083.87.25.218.165.328.443.328.831 0 .198-.034.36-.1.488a.8.8 0 01-.271.302 1.145 1.145 0 01-.392.16 2.22 2.22 0 01-.467.047h-1.78v-2.078h1.812zm-.254-2.904c.148 0 .291.012.429.037.138.025.26.069.366.132.106.064.19.152.254.265a.88.88 0 01.095.435c0 .318-.095.548-.286.689-.19.141-.434.212-.731.212h-1.686v-1.77h1.559zM31.642 19.25c-.58 0-1.101.103-1.564.308a3.344 3.344 0 00-1.171.848c-.318.36-.562.782-.732 1.267a4.729 4.729 0 00-.254 1.574c0 .55.085 1.065.254 1.542.17.477.414.892.732 1.245.318.354.708.631 1.171.832a3.88 3.88 0 001.564.303c.466 0 .893-.071 1.282-.212a2.974 2.974 0 001.018-.615c.29-.269.523-.594.7-.975.176-.382.285-.81.328-1.283h-1.611c-.064.509-.239.919-.525 1.23-.286.31-.684.466-1.193.466-.374 0-.692-.072-.953-.217a1.82 1.82 0 01-.636-.578c-.163-.24-.281-.51-.356-.81a4.142 4.142 0 010-1.892c.075-.312.193-.59.356-.833.162-.244.374-.438.636-.583.261-.145.579-.217.954-.217a1.73 1.73 0 011.462.8c.1.159.163.334.191.525h1.611a3.05 3.05 0 00-.36-1.166 2.836 2.836 0 00-.726-.854 3.2 3.2 0 00-.997-.524 3.813 3.813 0 00-1.181-.18zm-10.57.18H14.87v1.4h2.268V27h1.664v-6.17h2.268v-1.398zm6.25 0H21.66V27h5.745v-1.4h-4.081v-1.854h3.668v-1.293h-3.668V20.83h3.996v-1.4zm10.166 0h-1.664V27h1.664v-3.265h3.064V27h1.664v-7.568h-1.664v2.904h-3.064v-2.904z" transform="translate(-1624 -6999) translate(1624 6999)"/>
        </g>
    </g>
</svg>
