<svg xmlns="http://www.w3.org/2000/svg" width="174" height="362" viewBox="0 0 174 362">
    <path fill="#37E5BA" fill-rule="evenodd" d="M-88.494 64.76c33.002 19.054 44.31 61.253 25.256 94.256l-132.5 229.496c-19.054 33.003-61.254 44.31-94.256 25.256-33.002-19.054-44.31-61.253-25.256-94.256l132.5-229.496c19.054-33.003 61.254-44.31 94.256-25.256zM139 9.256c33.002 19.054 44.31 61.253 25.256 94.256l-132.5 229.496c-19.054 33.002-61.254 44.31-94.256 25.256-33.002-19.054-44.31-61.254-25.256-94.256l132.5-229.496C63.798 1.509 105.998-9.798 139 9.256z"/>
</svg>
