<svg xmlns="http://www.w3.org/2000/svg" width="378" height="439" viewBox="0 0 378 439">
    <path fill="#37E5BA" fill-rule="evenodd" d="M113.012 106.76c33.002 19.054 44.31 61.253 25.255 94.256L5.767 430.512c-19.054 33.003-61.253 44.31-94.255 25.256-33.003-19.054-44.31-61.253-25.256-94.256l132.5-229.496c19.054-33.003 61.253-44.31 94.256-25.256zM343.506 9.256c33.002 19.054 44.31 61.253 25.256 94.256l-132.5 229.496c-19.054 33.002-61.254 44.31-94.256 25.256-33.002-19.054-44.31-61.254-25.256-94.256l132.5-229.496c19.054-33.003 61.254-44.31 94.256-25.256z"/>
</svg>
