<svg xmlns="http://www.w3.org/2000/svg" width="313" height="368" viewBox="0 0 313 368">
    <path fill="#37E5BA" fill-rule="evenodd" d="M236.75 9.76c33.002 19.054 44.31 61.253 25.256 94.256l-132.5 229.496c-19.054 33.003-61.254 44.31-94.256 25.256-33.002-19.054-44.31-61.253-25.256-94.256l132.5-229.496C161.548 2.013 203.748-9.294 236.75 9.76zm220.494-27.504c33.002 19.054 44.31 61.253 25.256 94.256L350 306.008c-19.054 33.002-61.254 44.31-94.256 25.256-33.002-19.054-44.31-61.254-25.256-94.256l132.5-229.496c19.054-33.003 61.254-44.31 94.256-25.256z"/>
</svg>
