<svg xmlns="http://www.w3.org/2000/svg" width="56" height="56" viewBox="0 0 56 56">
    <g fill="none" fill-rule="evenodd">
        <path fill="#FFF" d="M0 0H1920V7175H0z" transform="translate(-1512 -6999)"/>
        <g>
            <path d="M0 0H56V56H0z" transform="translate(-1512 -6999) translate(1512 6999)"/>
            <path fill="#37E5BA" d="M39.307 6.058c6.62 0 12.034 5.416 12.034 12.034v21.674c0 6.618-5.414 12.034-12.034 12.034H17.634C11.015 51.8 5.6 46.384 5.6 39.766V18.092c0-6.618 5.414-12.034 12.033-12.034zm0 3.696H17.634c-4.598 0-8.337 3.74-8.337 8.338v21.674c0 4.597 3.74 8.338 8.337 8.338h21.673c4.598 0 8.338-3.74 8.338-8.338V18.092c0-4.598-3.74-8.338-8.338-8.338zM28.765 16.8c6.569.035 11.82 5.283 11.835 11.83.016 6.57-5.49 12.044-12.036 11.97-6.555-.076-11.75-5.349-11.764-11.936-.012-6.754 5.176-11.898 11.965-11.864zm-.02 4.142c-4.385-.034-7.875 3.418-7.842 7.757.031 4.213 3.49 7.694 7.688 7.736 4.225.042 7.898-3.605 7.876-7.82-.021-4.226-3.458-7.64-7.721-7.673zM40.6 12.6a2.8 2.8 0 110 5.6 2.8 2.8 0 010-5.6z" transform="translate(-1512 -6999) translate(1512 6999)"/>
        </g>
    </g>
</svg>
