<svg xmlns="http://www.w3.org/2000/svg" width="125" height="28" viewBox="0 0 125 28">
    <g>
        <path d="M7.009 27.09c1.501 0 2.777-.51 3.827-1.528.063-.063.095-.142.095-.236 0-.073-.027-.137-.08-.189l-.976-1.008c-.115-.116-.246-.116-.393 0-.746.598-1.55.898-2.41.898-.662 0-1.263-.166-1.804-.496-.54-.331-.963-.775-1.268-1.331-.304-.557-.456-1.16-.456-1.811 0-1.008.338-1.872 1.016-2.591.677-.72 1.509-1.08 2.496-1.08.441 0 .877.085 1.307.253.43.168.803.393 1.119.677.136.126.267.126.393 0l.961-.992c.063-.063.095-.137.095-.22 0-.085-.037-.158-.11-.221-.557-.494-1.137-.861-1.741-1.103-.604-.241-1.294-.362-2.071-.362-1.04 0-1.995.252-2.867.756-.871.504-1.559 1.192-2.063 2.063-.504.872-.756 1.827-.756 2.867s.252 1.99.756 2.85c.504.861 1.194 1.544 2.071 2.048.877.504 1.83.756 2.859.756zm6.127-.157c.22 0 .372-.105.456-.316l.772-1.7h4.71l.771 1.7c.063.116.126.197.189.245.063.047.152.07.268.07h1.37c.095 0 .168-.023.22-.07.053-.048.08-.113.08-.197 0-.032-.011-.079-.032-.142l-4.851-10.6c-.053-.115-.142-.173-.268-.173h-.158c-.115 0-.204.058-.267.173l-4.899 10.6c-.02.063-.031.11-.031.142 0 .073.026.136.079.189.052.052.126.079.22.079h1.37zm5.166-3.765h-3.166l1.543-3.465h.048l1.575 3.465zm6.772 3.765c.084 0 .155-.03.213-.087.057-.058.086-.129.086-.213v-4.016h1.748l2.095 4.174c.042.094.126.142.252.142h1.654c.105 0 .184-.03.236-.087.053-.058.079-.129.079-.213 0-.063-.016-.115-.047-.157l-2.158-4c.704-.284 1.268-.707 1.693-1.269.425-.561.638-1.2.638-1.913 0-.935-.336-1.733-1.008-2.394-.672-.662-1.48-.992-2.425-.992h-4.505c-.084 0-.155.028-.213.086-.057.058-.086.129-.086.213v10.426c0 .084.029.155.086.213.058.058.129.087.213.087h1.449zm.315-6.001v-3.134h2.567c.42 0 .785.15 1.095.448.31.3.465.66.465 1.08 0 .44-.155.818-.465 1.133-.31.315-.675.473-1.095.473H25.39zm15.041 6c.084 0 .155-.028.213-.086.058-.058.087-.129.087-.213v-1.291c0-.074-.03-.142-.087-.205-.058-.063-.129-.095-.213-.095h-4.662v-2.756h3.89c.084 0 .155-.029.213-.086.058-.058.087-.129.087-.213V20.68c0-.074-.03-.142-.087-.205-.058-.063-.129-.095-.213-.095h-3.89v-2.582h4.662c.084 0 .155-.03.213-.087.058-.058.087-.129.087-.213v-1.291c0-.074-.03-.142-.087-.205-.058-.063-.129-.094-.213-.094h-6.41c-.084 0-.155.028-.213.086-.057.058-.086.129-.086.213v10.426c0 .084.029.155.086.213.058.058.129.087.213.087h6.41zm9.072 0c.084 0 .155-.028.213-.086.058-.058.086-.129.086-.213v-1.291c0-.074-.028-.142-.086-.205-.058-.063-.129-.095-.213-.095H44.84v-2.756h3.89c.085 0 .155-.029.213-.086.058-.058.087-.129.087-.213V20.68c0-.074-.03-.142-.087-.205-.058-.063-.128-.095-.212-.095h-3.89v-2.582h4.661c.084 0 .155-.03.213-.087.058-.058.086-.129.086-.213v-1.291c0-.074-.028-.142-.086-.205-.058-.063-.129-.094-.213-.094h-6.41c-.084 0-.155.028-.213.086-.057.058-.086.129-.086.213v10.426c0 .084.029.155.086.213.058.058.129.087.213.087h6.41zm4.111 0c.084 0 .155-.028.213-.086.057-.058.086-.129.086-.213v-4.016h1.748l2.095 4.174c.042.094.126.142.252.142h1.654c.105 0 .184-.03.236-.087.053-.058.079-.129.079-.213 0-.063-.016-.115-.047-.157l-2.158-4c.703-.284 1.268-.707 1.693-1.269.425-.561.638-1.2.638-1.913 0-.935-.336-1.733-1.008-2.394-.672-.662-1.48-.992-2.425-.992h-4.505c-.084 0-.155.028-.213.086-.057.058-.086.129-.086.213v10.426c0 .084.029.155.086.213.058.058.129.087.213.087h1.449zm.315-6v-3.134h2.567c.42 0 .785.15 1.095.448.31.3.464.66.464 1.08 0 .44-.154.818-.464 1.133-.31.315-.675.473-1.095.473h-2.567z" transform="translate(-1)"/>
        <g>
            <path d="M57.21.012c-1.052 0-2.021.254-2.905.762-.883.507-1.58 1.2-2.091 2.078-.511.877-.767 1.84-.767 2.886s.256 2.004.767 2.871c.51.867 1.211 1.555 2.1 2.062.888.508 1.855.762 2.897.762 1.521 0 2.818-.515 3.883-1.54.09-.09.136-.204.136-.333 0-.11-.04-.207-.119-.285l-.964-.989c-.17-.168-.379-.168-.578-.012-.714.57-1.477.852-2.296.852-.628 0-1.197-.156-1.71-.467-.514-.312-.914-.73-1.204-1.255-.29-.526-.434-1.096-.434-1.713 0-.954.321-1.768.966-2.449.644-.678 1.43-1.016 2.367-1.016.418 0 .831.08 1.241.238.41.16.764.372 1.063.64.188.172.404.172.583-.006l.952-.976c.087-.086.133-.194.133-.314 0-.125-.055-.236-.158-.323-.56-.494-1.148-.864-1.76-1.107-.615-.244-1.316-.366-2.101-.366zm5.26 8.597c.51.867 1.202 1.555 2.075 2.062.873.508 1.837.762 2.89.762 1.053 0 2.02-.254 2.898-.762.878-.507 1.573-1.195 2.083-2.062.512-.867.767-1.825.767-2.871s-.255-2.009-.766-2.886c-.51-.878-1.206-1.57-2.084-2.078-.878-.508-1.845-.762-2.898-.762-1.053 0-2.017.254-2.89.762-.873.507-1.565 1.2-2.076 2.078-.51.877-.767 1.84-.767 2.886s.256 2.004.767 2.871zm1.54-2.871c0-.615.154-1.187.463-1.717.31-.531.726-.95 1.25-1.257.524-.307 1.093-.46 1.712-.46s1.192.153 1.72.46c.53.308.948.726 1.258 1.257.31.53.464 1.102.464 1.717 0 .614-.155 1.18-.464 1.7-.31.521-.728.935-1.258 1.243-.528.307-1.101.46-1.72.46-.949 0-1.754-.333-2.423-1.003-.67-.67-1.003-1.468-1.003-2.4zm12.98 5.106V4.19h-.14l-.074.094 6.386 6.993c.104.104.228.155.37.155h.218c.106 0 .205-.038.292-.11.095-.079.145-.185.145-.309V.601c0-.109-.043-.21-.123-.296-.084-.09-.192-.138-.314-.138h-1.433c-.12 0-.227.043-.31.126-.084.083-.127.188-.127.308v6.39h.14l.072-.096-6.355-6.73c-.102-.102-.226-.153-.367-.153h-.234c-.117 0-.221.038-.305.114-.087.079-.132.183-.132.305v10.413c0 .12.044.225.127.308.084.083.19.126.31.126h1.418c.12 0 .226-.043.31-.126.083-.083.127-.189.127-.308zm11.642 0V4.19h-.14l-.074.094 6.386 6.993c.104.104.228.155.37.155h.217c.107 0 .206-.038.293-.11.095-.079.144-.185.144-.309V.601c0-.109-.042-.21-.122-.296-.084-.09-.192-.138-.315-.138h-1.433c-.12 0-.226.043-.31.126-.083.083-.126.188-.126.308v6.39h.14l.072-.096L87.38.165c-.102-.102-.226-.153-.367-.153h-.234c-.117 0-.222.038-.305.114-.087.079-.132.183-.132.305v10.413c0 .12.043.225.127.308.084.083.19.126.31.126h1.417c.12 0 .227-.043.31-.126.084-.083.127-.189.127-.308zm11.658-4.13h3.706c.12 0 .226-.043.31-.127.084-.083.127-.188.127-.308V4.995c0-.109-.043-.209-.123-.296-.084-.09-.191-.138-.314-.138h-3.706V2.304h4.47c.12 0 .225-.043.309-.126.084-.084.127-.189.127-.308V.6c0-.108-.043-.208-.123-.295-.083-.09-.191-.138-.314-.138h-6.34c-.12 0-.225.043-.31.126-.083.083-.126.188-.126.308v10.243c0 .12.043.225.127.308.084.083.19.126.31.126h6.34c.12 0 .225-.043.309-.126.084-.083.127-.189.127-.308V9.575c0-.109-.043-.209-.123-.296-.083-.09-.191-.138-.314-.138h-4.47V6.713zM111.697.011c-1.053 0-2.022.254-2.905.762-.884.507-1.582 1.2-2.092 2.078-.511.877-.767 1.84-.767 2.886s.256 2.004.767 2.871c.51.867 1.211 1.555 2.1 2.062.888.508 1.855.762 2.897.762 1.521 0 2.818-.515 3.883-1.54.09-.09.136-.204.136-.333 0-.11-.04-.207-.119-.285l-.964-.989c-.169-.168-.379-.168-.578-.012-.714.57-1.477.852-2.296.852-.628 0-1.197-.156-1.71-.467-.513-.312-.914-.73-1.203-1.255-.29-.526-.435-1.096-.435-1.713 0-.954.322-1.768.967-2.449.643-.678 1.428-1.016 2.366-1.016.418 0 .832.08 1.241.238.41.16.764.372 1.063.64.188.172.404.172.583-.006l.952-.976c.087-.086.133-.194.133-.314 0-.125-.055-.236-.158-.323-.56-.494-1.148-.864-1.76-1.107-.615-.244-1.315-.366-2.101-.366zm12.322 2.292c.12 0 .226-.043.31-.126.083-.084.127-.189.127-.308V.6c0-.108-.043-.208-.123-.295-.084-.09-.192-.138-.314-.138h-6.807c-.12 0-.226.043-.31.126-.084.083-.127.188-.127.308V1.87c0 .108.043.209.123.295.083.091.191.139.314.139h2.242v8.54c0 .12.043.225.127.308.084.083.19.126.31.126h1.449c.12 0 .226-.043.31-.126.083-.083.126-.189.126-.308v-8.54h2.243zM.95 0c.086 0 .16.033.22.098s.09.135.09.21v4.748h6.644V.309c0-.087.03-.16.09-.22S8.128 0 8.215 0h.638c.087 0 .161.033.221.098s.09.135.09.21v10.763c0 .086-.033.16-.098.219-.066.06-.136.09-.213.09h-.638c-.087 0-.161-.033-.221-.098s-.09-.136-.09-.211V6.145H1.26v4.926c0 .086-.03.16-.09.219-.06.06-.134.09-.22.09H.31c-.086 0-.16-.03-.22-.09S0 11.157 0 11.07V.31c0-.087.033-.16.098-.22C.164.03.235 0 .311 0h.638zm10.93 0c.099 0 .186.049.262.146l3.306 4.536L18.754.146C18.83.05 18.917 0 19.016 0h.769c.098 0 .174.027.229.081.054.054.082.125.082.212 0 .065-.017.124-.05.178l-3.992 5.414v5.186c0 .086-.03.16-.09.219-.06.06-.134.09-.221.09h-.639c-.087 0-.16-.03-.22-.09s-.09-.133-.09-.22V5.902L10.85.471C10.817.428 10.8.374 10.8.31c0-.087.028-.16.082-.22.055-.06.131-.089.23-.089h.769zm13.747 0c1.003 0 1.865.352 2.585 1.057.72.704 1.08 1.55 1.08 2.536 0 1.008-.36 1.87-1.08 2.584-.72.716-1.576 1.073-2.569 1.073h-2.7v3.82c0 .087-.033.16-.098.22-.066.06-.137.09-.213.09h-.622c-.087 0-.16-.03-.22-.09s-.09-.133-.09-.22V.31c0-.087.03-.16.09-.22S21.922 0 22.01 0h3.617zm12.535 0c.087 0 .16.033.22.098s.09.135.09.21V.78c0 .087-.03.16-.09.22s-.133.09-.22.09h-5.499v3.966h4.697c.087 0 .161.03.221.09.06.059.09.132.09.219v.471c0 .087-.03.16-.09.22s-.134.089-.22.089h-4.698v4.145h5.499c.087 0 .16.03.22.09s.09.132.09.22v.47c0 .087-.03.16-.09.22s-.133.09-.22.09h-6.448c-.087 0-.16-.03-.22-.09s-.09-.133-.09-.22V.31c0-.087.03-.16.09-.22s.133-.089.22-.089h6.448zm7.217 0c.982 0 1.822.336 2.52 1.008.698.672 1.047 1.49 1.047 2.455 0 .737-.224 1.4-.67 1.991-.448.59-1.032 1.032-1.752 1.325l2.242 4.129c.033.043.05.098.05.163 0 .086-.028.16-.083.219-.054.06-.136.09-.245.09h-.786c-.152 0-.272-.082-.36-.244l-2.127-4.21h-3.126v4.145c0 .086-.03.16-.09.219-.06.06-.133.09-.22.09h-.639c-.087 0-.16-.03-.22-.09s-.09-.133-.09-.22V.31c0-.087.03-.16.09-.22S41.052 0 41.14 0h4.239zM25.545 1.235h-2.602v4.812h2.602c.687 0 1.274-.233 1.76-.699.485-.466.727-1.062.727-1.788 0-.693-.24-1.254-.72-1.682-.48-.428-1.069-.643-1.767-.643zm19.752-.048h-3.175v4.665h3.175c.633 0 1.184-.23 1.653-.69.469-.461.703-1.022.703-1.683 0-.618-.234-1.154-.703-1.61-.47-.455-1.02-.682-1.653-.682z" transform="translate(-1) translate(1.313)"/>
        </g>
    </g>
</svg>
